solid OpenSCAD_Model
  facet normal -1 0 0
    outer loop
      vertex -10 -4.5 0
      vertex -10 4.5 5
      vertex -10 4.5 0
    endloop
  endfacet
  facet normal -1 -0 0
    outer loop
      vertex -10 4.5 5
      vertex -10 -4.5 0
      vertex -10 -4.5 5
    endloop
  endfacet
  facet normal 0 0 1
    outer loop
      vertex 6.35628 1.57295 5
      vertex 10 4.5 5
      vertex 6.4125 2 5
    endloop
  endfacet
  facet normal 0 0 1
    outer loop
      vertex 10 4.5 5
      vertex 6.35628 2.42705 5
      vertex 6.4125 2 5
    endloop
  endfacet
  facet normal 0 0 1
    outer loop
      vertex 10 4.5 5
      vertex 6.19144 2.825 5
      vertex 6.35628 2.42705 5
    endloop
  endfacet
  facet normal 0 0 1
    outer loop
      vertex 10 4.5 5
      vertex 5.92923 3.16673 5
      vertex 6.19144 2.825 5
    endloop
  endfacet
  facet normal 0 0 1
    outer loop
      vertex 10 4.5 5
      vertex 5.5875 3.42894 5
      vertex 5.92923 3.16673 5
    endloop
  endfacet
  facet normal 0 0 1
    outer loop
      vertex 10 4.5 5
      vertex 5.18955 3.59378 5
      vertex 5.5875 3.42894 5
    endloop
  endfacet
  facet normal 0 0 1
    outer loop
      vertex 10 4.5 5
      vertex 4.7625 3.65 5
      vertex 5.18955 3.59378 5
    endloop
  endfacet
  facet normal 0 0 1
    outer loop
      vertex -4.7625 3.65 5
      vertex 4.7625 3.65 5
      vertex 10 4.5 5
    endloop
  endfacet
  facet normal 0 0 1
    outer loop
      vertex 3.16872 2.42705 5
      vertex -3.1125 2 5
      vertex 3.1125 2 5
    endloop
  endfacet
  facet normal 0 0 1
    outer loop
      vertex -3.16872 2.42705 5
      vertex 3.16872 2.42705 5
      vertex 3.33356 2.825 5
    endloop
  endfacet
  facet normal 0 0 1
    outer loop
      vertex -3.33356 2.825 5
      vertex 3.33356 2.825 5
      vertex 3.59577 3.16673 5
    endloop
  endfacet
  facet normal 0 0 1
    outer loop
      vertex -3.59577 3.16673 5
      vertex 3.59577 3.16673 5
      vertex 3.9375 3.42894 5
    endloop
  endfacet
  facet normal 0 0 1
    outer loop
      vertex -3.9375 3.42894 5
      vertex 3.9375 3.42894 5
      vertex 4.33545 3.59378 5
    endloop
  endfacet
  facet normal 0 0 1
    outer loop
      vertex 3.16872 2.42705 5
      vertex -3.16872 2.42705 5
      vertex -3.1125 2 5
    endloop
  endfacet
  facet normal 0 0 1
    outer loop
      vertex 4.7625 3.65 5
      vertex -4.7625 3.65 5
      vertex 4.33545 3.59378 5
    endloop
  endfacet
  facet normal 0 0 1
    outer loop
      vertex 3.33356 2.825 5
      vertex -3.33356 2.825 5
      vertex -3.16872 2.42705 5
    endloop
  endfacet
  facet normal 0 0 1
    outer loop
      vertex 3.59577 3.16673 5
      vertex -3.59577 3.16673 5
      vertex -3.33356 2.825 5
    endloop
  endfacet
  facet normal 0 0 1
    outer loop
      vertex 3.9375 3.42894 5
      vertex -3.9375 3.42894 5
      vertex -3.59577 3.16673 5
    endloop
  endfacet
  facet normal 0 0 1
    outer loop
      vertex 4.33545 3.59378 5
      vertex -4.33545 3.59378 5
      vertex -3.9375 3.42894 5
    endloop
  endfacet
  facet normal 0 0 1
    outer loop
      vertex 4.33545 3.59378 5
      vertex -4.7625 3.65 5
      vertex -4.33545 3.59378 5
    endloop
  endfacet
  facet normal 0 0 1
    outer loop
      vertex -6.35628 2.42705 5
      vertex -10 4.5 5
      vertex -6.4125 2 5
    endloop
  endfacet
  facet normal 0 0 1
    outer loop
      vertex -6.19144 2.825 5
      vertex -10 4.5 5
      vertex -6.35628 2.42705 5
    endloop
  endfacet
  facet normal 0 0 1
    outer loop
      vertex -5.92923 3.16673 5
      vertex -10 4.5 5
      vertex -6.19144 2.825 5
    endloop
  endfacet
  facet normal 0 0 1
    outer loop
      vertex -5.5875 3.42894 5
      vertex -10 4.5 5
      vertex -5.92923 3.16673 5
    endloop
  endfacet
  facet normal 0 0 1
    outer loop
      vertex -5.18955 3.59378 5
      vertex -10 4.5 5
      vertex -5.5875 3.42894 5
    endloop
  endfacet
  facet normal 0 0 1
    outer loop
      vertex -4.7625 3.65 5
      vertex -10 4.5 5
      vertex -5.18955 3.59378 5
    endloop
  endfacet
  facet normal -0 0 1
    outer loop
      vertex -10 4.5 5
      vertex -4.7625 3.65 5
      vertex 10 4.5 5
    endloop
  endfacet
  facet normal 0 0 1
    outer loop
      vertex 10 4.5 5
      vertex 6.35628 1.57295 5
      vertex 10 -4.5 5
    endloop
  endfacet
  facet normal -0 0 1
    outer loop
      vertex 6.19144 1.175 5
      vertex 10 -4.5 5
      vertex 6.35628 1.57295 5
    endloop
  endfacet
  facet normal -0 0 1
    outer loop
      vertex 5.92923 0.833273 5
      vertex 10 -4.5 5
      vertex 6.19144 1.175 5
    endloop
  endfacet
  facet normal -0 0 1
    outer loop
      vertex 5.5875 0.571057 5
      vertex 10 -4.5 5
      vertex 5.92923 0.833273 5
    endloop
  endfacet
  facet normal -0 0 1
    outer loop
      vertex 5.18955 0.406222 5
      vertex 10 -4.5 5
      vertex 5.5875 0.571057 5
    endloop
  endfacet
  facet normal -0 0 1
    outer loop
      vertex 4.7625 0.349999 5
      vertex 10 -4.5 5
      vertex 5.18955 0.406222 5
    endloop
  endfacet
  facet normal 0 0 1
    outer loop
      vertex 4.33545 0.406222 5
      vertex 10 -4.5 5
      vertex 4.7625 0.349999 5
    endloop
  endfacet
  facet normal 0 0 1
    outer loop
      vertex -4.33545 0.406222 5
      vertex 4.33545 0.406222 5
      vertex 3.9375 0.571057 5
    endloop
  endfacet
  facet normal 0 0 1
    outer loop
      vertex -3.9375 0.571057 5
      vertex 3.9375 0.571057 5
      vertex 3.59577 0.833273 5
    endloop
  endfacet
  facet normal -0 0 1
    outer loop
      vertex -3.1125 2 5
      vertex 3.16872 1.57295 5
      vertex 3.1125 2 5
    endloop
  endfacet
  facet normal 0 0 1
    outer loop
      vertex -3.16872 1.57295 5
      vertex 3.16872 1.57295 5
      vertex -3.1125 2 5
    endloop
  endfacet
  facet normal 0 0 1
    outer loop
      vertex 3.16872 1.57295 5
      vertex -3.16872 1.57295 5
      vertex 3.33356 1.175 5
    endloop
  endfacet
  facet normal 0 0 1
    outer loop
      vertex -3.33356 1.175 5
      vertex 3.33356 1.175 5
      vertex -3.16872 1.57295 5
    endloop
  endfacet
  facet normal 0 0 1
    outer loop
      vertex 3.33356 1.175 5
      vertex -3.33356 1.175 5
      vertex 3.59577 0.833273 5
    endloop
  endfacet
  facet normal 0 0 1
    outer loop
      vertex -3.59577 0.833273 5
      vertex 3.59577 0.833273 5
      vertex -3.33356 1.175 5
    endloop
  endfacet
  facet normal 0 0 1
    outer loop
      vertex -3.9375 0.571057 5
      vertex 3.59577 0.833273 5
      vertex -3.59577 0.833273 5
    endloop
  endfacet
  facet normal 0 0 1
    outer loop
      vertex -4.33545 0.406222 5
      vertex 3.9375 0.571057 5
      vertex -3.9375 0.571057 5
    endloop
  endfacet
  facet normal 0 0 1
    outer loop
      vertex 4.33545 0.406222 5
      vertex -4.33545 0.406222 5
      vertex 10 -4.5 5
    endloop
  endfacet
  facet normal 0 0 1
    outer loop
      vertex -10 -4.5 5
      vertex -4.33545 0.406222 5
      vertex -4.7625 0.349999 5
    endloop
  endfacet
  facet normal 0 0 1
    outer loop
      vertex -10 -4.5 5
      vertex -4.7625 0.349999 5
      vertex -5.18955 0.406222 5
    endloop
  endfacet
  facet normal 0 0 1
    outer loop
      vertex -10 4.5 5
      vertex -6.35628 1.57295 5
      vertex -6.4125 2 5
    endloop
  endfacet
  facet normal 0 0 1
    outer loop
      vertex -10 -4.5 5
      vertex -6.35628 1.57295 5
      vertex -10 4.5 5
    endloop
  endfacet
  facet normal 0 0 1
    outer loop
      vertex -6.35628 1.57295 5
      vertex -10 -4.5 5
      vertex -6.19144 1.175 5
    endloop
  endfacet
  facet normal 0 0 1
    outer loop
      vertex -4.33545 0.406222 5
      vertex -10 -4.5 5
      vertex 10 -4.5 5
    endloop
  endfacet
  facet normal 0 0 1
    outer loop
      vertex -5.5875 0.571057 5
      vertex -10 -4.5 5
      vertex -5.18955 0.406222 5
    endloop
  endfacet
  facet normal 0 0 1
    outer loop
      vertex -5.92923 0.833273 5
      vertex -10 -4.5 5
      vertex -5.5875 0.571057 5
    endloop
  endfacet
  facet normal 0 0 1
    outer loop
      vertex -6.19144 1.175 5
      vertex -10 -4.5 5
      vertex -5.92923 0.833273 5
    endloop
  endfacet
  facet normal 1 -0 0
    outer loop
      vertex 10 -4.5 5
      vertex 10 4.5 0
      vertex 10 4.5 5
    endloop
  endfacet
  facet normal 1 0 0
    outer loop
      vertex 10 4.5 0
      vertex 10 -4.5 5
      vertex 10 -4.5 0
    endloop
  endfacet
  facet normal 0 1 -0
    outer loop
      vertex 10 4.5 0
      vertex -10 4.5 5
      vertex 10 4.5 5
    endloop
  endfacet
  facet normal 0 1 0
    outer loop
      vertex -10 4.5 5
      vertex 10 4.5 0
      vertex -10 4.5 0
    endloop
  endfacet
  facet normal 0 0 -1
    outer loop
      vertex 6.35628 1.57295 0
      vertex 10 4.5 0
      vertex 10 -4.5 0
    endloop
  endfacet
  facet normal 0 0 -1
    outer loop
      vertex 10 4.5 0
      vertex 6.35628 1.57295 0
      vertex 6.4125 2 0
    endloop
  endfacet
  facet normal 0 0 -1
    outer loop
      vertex 10 -4.5 0
      vertex 6.19144 1.175 0
      vertex 6.35628 1.57295 0
    endloop
  endfacet
  facet normal 0 0 -1
    outer loop
      vertex 10 -4.5 0
      vertex 5.92923 0.833273 0
      vertex 6.19144 1.175 0
    endloop
  endfacet
  facet normal 0 0 -1
    outer loop
      vertex 10 -4.5 0
      vertex 5.5875 0.571057 0
      vertex 5.92923 0.833273 0
    endloop
  endfacet
  facet normal 0 0 -1
    outer loop
      vertex 10 -4.5 0
      vertex 5.18955 0.406222 0
      vertex 5.5875 0.571057 0
    endloop
  endfacet
  facet normal 0 0 -1
    outer loop
      vertex 10 -4.5 0
      vertex 4.7625 0.349999 0
      vertex 5.18955 0.406222 0
    endloop
  endfacet
  facet normal 0 0 -1
    outer loop
      vertex 10 -4.5 0
      vertex 4.33545 0.406222 0
      vertex 4.7625 0.349999 0
    endloop
  endfacet
  facet normal 0 0 -1
    outer loop
      vertex -4.33545 0.406222 0
      vertex 4.33545 0.406222 0
      vertex 10 -4.5 0
    endloop
  endfacet
  facet normal 0 0 -1
    outer loop
      vertex 4.33545 0.406222 0
      vertex -4.33545 0.406222 0
      vertex 3.9375 0.571057 0
    endloop
  endfacet
  facet normal 0 0 -1
    outer loop
      vertex 3.16872 1.57295 0
      vertex -3.1125 2 0
      vertex 3.1125 2 0
    endloop
  endfacet
  facet normal 0 0 -1
    outer loop
      vertex -3.16872 1.57295 0
      vertex 3.16872 1.57295 0
      vertex 3.33356 1.175 0
    endloop
  endfacet
  facet normal 0 0 -1
    outer loop
      vertex -3.33356 1.175 0
      vertex 3.33356 1.175 0
      vertex 3.59577 0.833273 0
    endloop
  endfacet
  facet normal 0 0 -1
    outer loop
      vertex 3.9375 0.571057 0
      vertex -3.9375 0.571057 0
      vertex 3.59577 0.833273 0
    endloop
  endfacet
  facet normal 0 0 -1
    outer loop
      vertex 3.16872 1.57295 0
      vertex -3.16872 1.57295 0
      vertex -3.1125 2 0
    endloop
  endfacet
  facet normal 0 0 -1
    outer loop
      vertex 3.33356 1.175 0
      vertex -3.33356 1.175 0
      vertex -3.16872 1.57295 0
    endloop
  endfacet
  facet normal 0 0 -1
    outer loop
      vertex 3.59577 0.833273 0
      vertex -3.59577 0.833273 0
      vertex -3.33356 1.175 0
    endloop
  endfacet
  facet normal -0 0 -1
    outer loop
      vertex 3.59577 0.833273 0
      vertex -3.9375 0.571057 0
      vertex -3.59577 0.833273 0
    endloop
  endfacet
  facet normal -0 0 -1
    outer loop
      vertex 3.9375 0.571057 0
      vertex -4.33545 0.406222 0
      vertex -3.9375 0.571057 0
    endloop
  endfacet
  facet normal 0 0 -1
    outer loop
      vertex -10 -4.5 0
      vertex -4.33545 0.406222 0
      vertex 10 -4.5 0
    endloop
  endfacet
  facet normal 0 0 -1
    outer loop
      vertex -4.33545 0.406222 0
      vertex -10 -4.5 0
      vertex -4.7625 0.349999 0
    endloop
  endfacet
  facet normal 0 0 -1
    outer loop
      vertex -10 4.5 0
      vertex -6.35628 1.57295 0
      vertex -10 -4.5 0
    endloop
  endfacet
  facet normal -0 0 -1
    outer loop
      vertex -6.19144 1.175 0
      vertex -10 -4.5 0
      vertex -6.35628 1.57295 0
    endloop
  endfacet
  facet normal -0 0 -1
    outer loop
      vertex -5.92923 0.833273 0
      vertex -10 -4.5 0
      vertex -6.19144 1.175 0
    endloop
  endfacet
  facet normal -0 0 -1
    outer loop
      vertex -5.5875 0.571057 0
      vertex -10 -4.5 0
      vertex -5.92923 0.833273 0
    endloop
  endfacet
  facet normal -0 0 -1
    outer loop
      vertex -5.18955 0.406222 0
      vertex -10 -4.5 0
      vertex -5.5875 0.571057 0
    endloop
  endfacet
  facet normal -0 0 -1
    outer loop
      vertex -4.7625 0.349999 0
      vertex -10 -4.5 0
      vertex -5.18955 0.406222 0
    endloop
  endfacet
  facet normal 0 0 -1
    outer loop
      vertex 6.35628 2.42705 0
      vertex 10 4.5 0
      vertex 6.4125 2 0
    endloop
  endfacet
  facet normal 0 0 -1
    outer loop
      vertex 6.19144 2.825 0
      vertex 10 4.5 0
      vertex 6.35628 2.42705 0
    endloop
  endfacet
  facet normal 0 0 -1
    outer loop
      vertex 5.92923 3.16673 0
      vertex 10 4.5 0
      vertex 6.19144 2.825 0
    endloop
  endfacet
  facet normal 0 0 -1
    outer loop
      vertex 5.5875 3.42894 0
      vertex 10 4.5 0
      vertex 5.92923 3.16673 0
    endloop
  endfacet
  facet normal 0 0 -1
    outer loop
      vertex 5.18955 3.59378 0
      vertex 10 4.5 0
      vertex 5.5875 3.42894 0
    endloop
  endfacet
  facet normal 0 0 -1
    outer loop
      vertex 4.7625 3.65 0
      vertex 10 4.5 0
      vertex 5.18955 3.59378 0
    endloop
  endfacet
  facet normal 0 0 -1
    outer loop
      vertex -4.7625 3.65 0
      vertex 4.7625 3.65 0
      vertex 4.33545 3.59378 0
    endloop
  endfacet
  facet normal 0 0 -1
    outer loop
      vertex -3.1125 2 0
      vertex 3.16872 2.42705 0
      vertex 3.1125 2 0
    endloop
  endfacet
  facet normal 0 0 -1
    outer loop
      vertex -3.16872 2.42705 0
      vertex 3.16872 2.42705 0
      vertex -3.1125 2 0
    endloop
  endfacet
  facet normal 0 0 -1
    outer loop
      vertex 3.16872 2.42705 0
      vertex -3.16872 2.42705 0
      vertex 3.33356 2.825 0
    endloop
  endfacet
  facet normal 0 0 -1
    outer loop
      vertex -3.33356 2.825 0
      vertex 3.33356 2.825 0
      vertex -3.16872 2.42705 0
    endloop
  endfacet
  facet normal 0 0 -1
    outer loop
      vertex 3.33356 2.825 0
      vertex -3.33356 2.825 0
      vertex 3.59577 3.16673 0
    endloop
  endfacet
  facet normal 0 0 -1
    outer loop
      vertex -3.59577 3.16673 0
      vertex 3.59577 3.16673 0
      vertex -3.33356 2.825 0
    endloop
  endfacet
  facet normal 0 0 -1
    outer loop
      vertex 3.59577 3.16673 0
      vertex -3.59577 3.16673 0
      vertex 3.9375 3.42894 0
    endloop
  endfacet
  facet normal 0 0 -1
    outer loop
      vertex -3.9375 3.42894 0
      vertex 3.9375 3.42894 0
      vertex -3.59577 3.16673 0
    endloop
  endfacet
  facet normal 0 0 -1
    outer loop
      vertex 3.9375 3.42894 0
      vertex -3.9375 3.42894 0
      vertex 4.33545 3.59378 0
    endloop
  endfacet
  facet normal 0 0 -1
    outer loop
      vertex -4.33545 3.59378 0
      vertex 4.33545 3.59378 0
      vertex -3.9375 3.42894 0
    endloop
  endfacet
  facet normal 0 0 -1
    outer loop
      vertex -4.7625 3.65 0
      vertex 4.33545 3.59378 0
      vertex -4.33545 3.59378 0
    endloop
  endfacet
  facet normal 0 0 -1
    outer loop
      vertex 4.7625 3.65 0
      vertex -4.7625 3.65 0
      vertex 10 4.5 0
    endloop
  endfacet
  facet normal 0 0 -1
    outer loop
      vertex -6.35628 1.57295 0
      vertex -10 4.5 0
      vertex -6.4125 2 0
    endloop
  endfacet
  facet normal 0 0 -1
    outer loop
      vertex -6.4125 2 0
      vertex -10 4.5 0
      vertex -6.35628 2.42705 0
    endloop
  endfacet
  facet normal 0 0 -1
    outer loop
      vertex -4.7625 3.65 0
      vertex -10 4.5 0
      vertex 10 4.5 0
    endloop
  endfacet
  facet normal 0 0 -1
    outer loop
      vertex -5.18955 3.59378 0
      vertex -10 4.5 0
      vertex -4.7625 3.65 0
    endloop
  endfacet
  facet normal 0 0 -1
    outer loop
      vertex -5.5875 3.42894 0
      vertex -10 4.5 0
      vertex -5.18955 3.59378 0
    endloop
  endfacet
  facet normal 0 0 -1
    outer loop
      vertex -5.92923 3.16673 0
      vertex -10 4.5 0
      vertex -5.5875 3.42894 0
    endloop
  endfacet
  facet normal 0 0 -1
    outer loop
      vertex -6.19144 2.825 0
      vertex -10 4.5 0
      vertex -5.92923 3.16673 0
    endloop
  endfacet
  facet normal 0 0 -1
    outer loop
      vertex -6.35628 2.42705 0
      vertex -10 4.5 0
      vertex -6.19144 2.825 0
    endloop
  endfacet
  facet normal 0 -1 0
    outer loop
      vertex -10 -4.5 0
      vertex 10 -4.5 5
      vertex -10 -4.5 5
    endloop
  endfacet
  facet normal 0 -1 -0
    outer loop
      vertex 10 -4.5 5
      vertex -10 -4.5 0
      vertex 10 -4.5 0
    endloop
  endfacet
  facet normal -0.991445 -0.130528 0
    outer loop
      vertex -3.1125 2 0
      vertex -3.16872 2.42705 5
      vertex -3.16872 2.42705 0
    endloop
  endfacet
  facet normal -0.991445 -0.130528 0
    outer loop
      vertex -3.16872 2.42705 5
      vertex -3.1125 2 0
      vertex -3.1125 2 5
    endloop
  endfacet
  facet normal 0.991445 0.130525 0
    outer loop
      vertex -6.35628 1.57295 5
      vertex -6.4125 2 0
      vertex -6.4125 2 5
    endloop
  endfacet
  facet normal 0.991445 0.130525 0
    outer loop
      vertex -6.4125 2 0
      vertex -6.35628 1.57295 5
      vertex -6.35628 1.57295 0
    endloop
  endfacet
  facet normal 0.130527 -0.991445 0
    outer loop
      vertex -5.18955 3.59378 0
      vertex -4.7625 3.65 5
      vertex -5.18955 3.59378 5
    endloop
  endfacet
  facet normal 0.130527 -0.991445 0
    outer loop
      vertex -4.7625 3.65 5
      vertex -5.18955 3.59378 0
      vertex -4.7625 3.65 0
    endloop
  endfacet
  facet normal -0.130527 0.991445 0
    outer loop
      vertex -4.33545 0.406222 0
      vertex -4.7625 0.349999 5
      vertex -4.33545 0.406222 5
    endloop
  endfacet
  facet normal -0.130527 0.991445 0
    outer loop
      vertex -4.7625 0.349999 5
      vertex -4.33545 0.406222 0
      vertex -4.7625 0.349999 0
    endloop
  endfacet
  facet normal -0.382681 0.92388 0
    outer loop
      vertex -3.9375 0.571057 0
      vertex -4.33545 0.406222 5
      vertex -3.9375 0.571057 5
    endloop
  endfacet
  facet normal -0.382681 0.92388 0
    outer loop
      vertex -4.33545 0.406222 5
      vertex -3.9375 0.571057 0
      vertex -4.33545 0.406222 0
    endloop
  endfacet
  facet normal -0.608762 -0.793353 0
    outer loop
      vertex -3.9375 3.42894 0
      vertex -3.59577 3.16673 5
      vertex -3.9375 3.42894 5
    endloop
  endfacet
  facet normal -0.608762 -0.793353 -0
    outer loop
      vertex -3.59577 3.16673 5
      vertex -3.9375 3.42894 0
      vertex -3.59577 3.16673 0
    endloop
  endfacet
  facet normal -0.92388 -0.382683 0
    outer loop
      vertex -3.16872 2.42705 0
      vertex -3.33356 2.825 5
      vertex -3.33356 2.825 0
    endloop
  endfacet
  facet normal -0.92388 -0.382683 0
    outer loop
      vertex -3.33356 2.825 5
      vertex -3.16872 2.42705 0
      vertex -3.16872 2.42705 5
    endloop
  endfacet
  facet normal 0.793354 -0.608761 0
    outer loop
      vertex -6.19144 2.825 5
      vertex -5.92923 3.16673 0
      vertex -5.92923 3.16673 5
    endloop
  endfacet
  facet normal 0.793354 -0.608761 0
    outer loop
      vertex -5.92923 3.16673 0
      vertex -6.19144 2.825 5
      vertex -6.19144 2.825 0
    endloop
  endfacet
  facet normal 0.92388 -0.382683 0
    outer loop
      vertex -6.35628 2.42705 5
      vertex -6.19144 2.825 0
      vertex -6.19144 2.825 5
    endloop
  endfacet
  facet normal 0.92388 -0.382683 0
    outer loop
      vertex -6.19144 2.825 0
      vertex -6.35628 2.42705 5
      vertex -6.35628 2.42705 0
    endloop
  endfacet
  facet normal 0.608761 -0.793354 0
    outer loop
      vertex -5.92923 3.16673 0
      vertex -5.5875 3.42894 5
      vertex -5.92923 3.16673 5
    endloop
  endfacet
  facet normal 0.608761 -0.793354 0
    outer loop
      vertex -5.5875 3.42894 5
      vertex -5.92923 3.16673 0
      vertex -5.5875 3.42894 0
    endloop
  endfacet
  facet normal 0.608761 0.793354 -0
    outer loop
      vertex -5.5875 0.571057 0
      vertex -5.92923 0.833273 5
      vertex -5.5875 0.571057 5
    endloop
  endfacet
  facet normal 0.608761 0.793354 0
    outer loop
      vertex -5.92923 0.833273 5
      vertex -5.5875 0.571057 0
      vertex -5.92923 0.833273 0
    endloop
  endfacet
  facet normal -0.793354 -0.608761 0
    outer loop
      vertex -3.33356 2.825 0
      vertex -3.59577 3.16673 5
      vertex -3.59577 3.16673 0
    endloop
  endfacet
  facet normal -0.793354 -0.608761 0
    outer loop
      vertex -3.59577 3.16673 5
      vertex -3.33356 2.825 0
      vertex -3.33356 2.825 5
    endloop
  endfacet
  facet normal -0.130527 -0.991445 0
    outer loop
      vertex -4.7625 3.65 0
      vertex -4.33545 3.59378 5
      vertex -4.7625 3.65 5
    endloop
  endfacet
  facet normal -0.130527 -0.991445 -0
    outer loop
      vertex -4.33545 3.59378 5
      vertex -4.7625 3.65 0
      vertex -4.33545 3.59378 0
    endloop
  endfacet
  facet normal -0.382681 -0.92388 0
    outer loop
      vertex -4.33545 3.59378 0
      vertex -3.9375 3.42894 5
      vertex -4.33545 3.59378 5
    endloop
  endfacet
  facet normal -0.382681 -0.92388 -0
    outer loop
      vertex -3.9375 3.42894 5
      vertex -4.33545 3.59378 0
      vertex -3.9375 3.42894 0
    endloop
  endfacet
  facet normal 0.991445 -0.130525 0
    outer loop
      vertex -6.4125 2 5
      vertex -6.35628 2.42705 0
      vertex -6.35628 2.42705 5
    endloop
  endfacet
  facet normal 0.991445 -0.130525 0
    outer loop
      vertex -6.35628 2.42705 0
      vertex -6.4125 2 5
      vertex -6.4125 2 0
    endloop
  endfacet
  facet normal 0.382682 -0.92388 0
    outer loop
      vertex -5.5875 3.42894 0
      vertex -5.18955 3.59378 5
      vertex -5.5875 3.42894 5
    endloop
  endfacet
  facet normal 0.382682 -0.92388 0
    outer loop
      vertex -5.18955 3.59378 5
      vertex -5.5875 3.42894 0
      vertex -5.18955 3.59378 0
    endloop
  endfacet
  facet normal -0.991445 0.130527 0
    outer loop
      vertex -3.16872 1.57295 0
      vertex -3.1125 2 5
      vertex -3.1125 2 0
    endloop
  endfacet
  facet normal -0.991445 0.130527 0
    outer loop
      vertex -3.1125 2 5
      vertex -3.16872 1.57295 0
      vertex -3.16872 1.57295 5
    endloop
  endfacet
  facet normal -0.92388 0.382683 0
    outer loop
      vertex -3.33356 1.175 0
      vertex -3.16872 1.57295 5
      vertex -3.16872 1.57295 0
    endloop
  endfacet
  facet normal -0.92388 0.382683 0
    outer loop
      vertex -3.16872 1.57295 5
      vertex -3.33356 1.175 0
      vertex -3.33356 1.175 5
    endloop
  endfacet
  facet normal 0.382682 0.92388 -0
    outer loop
      vertex -5.18955 0.406222 0
      vertex -5.5875 0.571057 5
      vertex -5.18955 0.406222 5
    endloop
  endfacet
  facet normal 0.382682 0.92388 0
    outer loop
      vertex -5.5875 0.571057 5
      vertex -5.18955 0.406222 0
      vertex -5.5875 0.571057 0
    endloop
  endfacet
  facet normal -0.608762 0.793353 0
    outer loop
      vertex -3.59577 0.833273 0
      vertex -3.9375 0.571057 5
      vertex -3.59577 0.833273 5
    endloop
  endfacet
  facet normal -0.608762 0.793353 0
    outer loop
      vertex -3.9375 0.571057 5
      vertex -3.59577 0.833273 0
      vertex -3.9375 0.571057 0
    endloop
  endfacet
  facet normal 0.130527 0.991445 -0
    outer loop
      vertex -4.7625 0.349999 0
      vertex -5.18955 0.406222 5
      vertex -4.7625 0.349999 5
    endloop
  endfacet
  facet normal 0.130527 0.991445 0
    outer loop
      vertex -5.18955 0.406222 5
      vertex -4.7625 0.349999 0
      vertex -5.18955 0.406222 0
    endloop
  endfacet
  facet normal 0.793354 0.608761 0
    outer loop
      vertex -5.92923 0.833273 5
      vertex -6.19144 1.175 0
      vertex -6.19144 1.175 5
    endloop
  endfacet
  facet normal 0.793354 0.608761 0
    outer loop
      vertex -6.19144 1.175 0
      vertex -5.92923 0.833273 5
      vertex -5.92923 0.833273 0
    endloop
  endfacet
  facet normal 0.92388 0.382683 0
    outer loop
      vertex -6.19144 1.175 5
      vertex -6.35628 1.57295 0
      vertex -6.35628 1.57295 5
    endloop
  endfacet
  facet normal 0.92388 0.382683 0
    outer loop
      vertex -6.35628 1.57295 0
      vertex -6.19144 1.175 5
      vertex -6.19144 1.175 0
    endloop
  endfacet
  facet normal -0.793354 0.608761 0
    outer loop
      vertex -3.59577 0.833273 0
      vertex -3.33356 1.175 5
      vertex -3.33356 1.175 0
    endloop
  endfacet
  facet normal -0.793354 0.608761 0
    outer loop
      vertex -3.33356 1.175 5
      vertex -3.59577 0.833273 0
      vertex -3.59577 0.833273 5
    endloop
  endfacet
  facet normal -0.991445 -0.130525 0
    outer loop
      vertex 6.4125 2 0
      vertex 6.35628 2.42705 5
      vertex 6.35628 2.42705 0
    endloop
  endfacet
  facet normal -0.991445 -0.130525 0
    outer loop
      vertex 6.35628 2.42705 5
      vertex 6.4125 2 0
      vertex 6.4125 2 5
    endloop
  endfacet
  facet normal 0.991445 -0.130528 0
    outer loop
      vertex 3.1125 2 5
      vertex 3.16872 2.42705 0
      vertex 3.16872 2.42705 5
    endloop
  endfacet
  facet normal 0.991445 -0.130528 0
    outer loop
      vertex 3.16872 2.42705 0
      vertex 3.1125 2 5
      vertex 3.1125 2 0
    endloop
  endfacet
  facet normal -0.130527 -0.991445 0
    outer loop
      vertex 4.7625 3.65 0
      vertex 5.18955 3.59378 5
      vertex 4.7625 3.65 5
    endloop
  endfacet
  facet normal -0.130527 -0.991445 -0
    outer loop
      vertex 5.18955 3.59378 5
      vertex 4.7625 3.65 0
      vertex 5.18955 3.59378 0
    endloop
  endfacet
  facet normal 0.130527 0.991445 -0
    outer loop
      vertex 4.7625 0.349999 0
      vertex 4.33545 0.406222 5
      vertex 4.7625 0.349999 5
    endloop
  endfacet
  facet normal 0.130527 0.991445 0
    outer loop
      vertex 4.33545 0.406222 5
      vertex 4.7625 0.349999 0
      vertex 4.33545 0.406222 0
    endloop
  endfacet
  facet normal -0.793354 -0.608761 0
    outer loop
      vertex 6.19144 2.825 0
      vertex 5.92923 3.16673 5
      vertex 5.92923 3.16673 0
    endloop
  endfacet
  facet normal -0.793354 -0.608761 0
    outer loop
      vertex 5.92923 3.16673 5
      vertex 6.19144 2.825 0
      vertex 6.19144 2.825 5
    endloop
  endfacet
  facet normal -0.92388 -0.382683 0
    outer loop
      vertex 6.35628 2.42705 0
      vertex 6.19144 2.825 5
      vertex 6.19144 2.825 0
    endloop
  endfacet
  facet normal -0.92388 -0.382683 0
    outer loop
      vertex 6.19144 2.825 5
      vertex 6.35628 2.42705 0
      vertex 6.35628 2.42705 5
    endloop
  endfacet
  facet normal -0.608761 -0.793354 0
    outer loop
      vertex 5.5875 3.42894 0
      vertex 5.92923 3.16673 5
      vertex 5.5875 3.42894 5
    endloop
  endfacet
  facet normal -0.608761 -0.793354 -0
    outer loop
      vertex 5.92923 3.16673 5
      vertex 5.5875 3.42894 0
      vertex 5.92923 3.16673 0
    endloop
  endfacet
  facet normal 0.608762 -0.793353 0
    outer loop
      vertex 3.59577 3.16673 0
      vertex 3.9375 3.42894 5
      vertex 3.59577 3.16673 5
    endloop
  endfacet
  facet normal 0.608762 -0.793353 0
    outer loop
      vertex 3.9375 3.42894 5
      vertex 3.59577 3.16673 0
      vertex 3.9375 3.42894 0
    endloop
  endfacet
  facet normal 0.793354 -0.608761 0
    outer loop
      vertex 3.33356 2.825 5
      vertex 3.59577 3.16673 0
      vertex 3.59577 3.16673 5
    endloop
  endfacet
  facet normal 0.793354 -0.608761 0
    outer loop
      vertex 3.59577 3.16673 0
      vertex 3.33356 2.825 5
      vertex 3.33356 2.825 0
    endloop
  endfacet
  facet normal 0.382681 -0.92388 0
    outer loop
      vertex 3.9375 3.42894 0
      vertex 4.33545 3.59378 5
      vertex 3.9375 3.42894 5
    endloop
  endfacet
  facet normal 0.382681 -0.92388 0
    outer loop
      vertex 4.33545 3.59378 5
      vertex 3.9375 3.42894 0
      vertex 4.33545 3.59378 0
    endloop
  endfacet
  facet normal 0.608762 0.793353 -0
    outer loop
      vertex 3.9375 0.571057 0
      vertex 3.59577 0.833273 5
      vertex 3.9375 0.571057 5
    endloop
  endfacet
  facet normal 0.608762 0.793353 0
    outer loop
      vertex 3.59577 0.833273 5
      vertex 3.9375 0.571057 0
      vertex 3.59577 0.833273 0
    endloop
  endfacet
  facet normal -0.382682 -0.92388 0
    outer loop
      vertex 5.18955 3.59378 0
      vertex 5.5875 3.42894 5
      vertex 5.18955 3.59378 5
    endloop
  endfacet
  facet normal -0.382682 -0.92388 -0
    outer loop
      vertex 5.5875 3.42894 5
      vertex 5.18955 3.59378 0
      vertex 5.5875 3.42894 0
    endloop
  endfacet
  facet normal 0.92388 -0.382683 0
    outer loop
      vertex 3.16872 2.42705 5
      vertex 3.33356 2.825 0
      vertex 3.33356 2.825 5
    endloop
  endfacet
  facet normal 0.92388 -0.382683 0
    outer loop
      vertex 3.33356 2.825 0
      vertex 3.16872 2.42705 5
      vertex 3.16872 2.42705 0
    endloop
  endfacet
  facet normal 0.130527 -0.991445 0
    outer loop
      vertex 4.33545 3.59378 0
      vertex 4.7625 3.65 5
      vertex 4.33545 3.59378 5
    endloop
  endfacet
  facet normal 0.130527 -0.991445 0
    outer loop
      vertex 4.7625 3.65 5
      vertex 4.33545 3.59378 0
      vertex 4.7625 3.65 0
    endloop
  endfacet
  facet normal -0.130527 0.991445 0
    outer loop
      vertex 5.18955 0.406222 0
      vertex 4.7625 0.349999 5
      vertex 5.18955 0.406222 5
    endloop
  endfacet
  facet normal -0.130527 0.991445 0
    outer loop
      vertex 4.7625 0.349999 5
      vertex 5.18955 0.406222 0
      vertex 4.7625 0.349999 0
    endloop
  endfacet
  facet normal -0.608761 0.793354 0
    outer loop
      vertex 5.92923 0.833273 0
      vertex 5.5875 0.571057 5
      vertex 5.92923 0.833273 5
    endloop
  endfacet
  facet normal -0.608761 0.793354 0
    outer loop
      vertex 5.5875 0.571057 5
      vertex 5.92923 0.833273 0
      vertex 5.5875 0.571057 0
    endloop
  endfacet
  facet normal -0.793354 0.608761 0
    outer loop
      vertex 5.92923 0.833273 0
      vertex 6.19144 1.175 5
      vertex 6.19144 1.175 0
    endloop
  endfacet
  facet normal -0.793354 0.608761 0
    outer loop
      vertex 6.19144 1.175 5
      vertex 5.92923 0.833273 0
      vertex 5.92923 0.833273 5
    endloop
  endfacet
  facet normal -0.991445 0.130525 0
    outer loop
      vertex 6.35628 1.57295 0
      vertex 6.4125 2 5
      vertex 6.4125 2 0
    endloop
  endfacet
  facet normal -0.991445 0.130525 0
    outer loop
      vertex 6.4125 2 5
      vertex 6.35628 1.57295 0
      vertex 6.35628 1.57295 5
    endloop
  endfacet
  facet normal 0.382681 0.92388 -0
    outer loop
      vertex 4.33545 0.406222 0
      vertex 3.9375 0.571057 5
      vertex 4.33545 0.406222 5
    endloop
  endfacet
  facet normal 0.382681 0.92388 0
    outer loop
      vertex 3.9375 0.571057 5
      vertex 4.33545 0.406222 0
      vertex 3.9375 0.571057 0
    endloop
  endfacet
  facet normal 0.793354 0.608761 0
    outer loop
      vertex 3.59577 0.833273 5
      vertex 3.33356 1.175 0
      vertex 3.33356 1.175 5
    endloop
  endfacet
  facet normal 0.793354 0.608761 0
    outer loop
      vertex 3.33356 1.175 0
      vertex 3.59577 0.833273 5
      vertex 3.59577 0.833273 0
    endloop
  endfacet
  facet normal 0.991445 0.130527 0
    outer loop
      vertex 3.16872 1.57295 5
      vertex 3.1125 2 0
      vertex 3.1125 2 5
    endloop
  endfacet
  facet normal 0.991445 0.130527 0
    outer loop
      vertex 3.1125 2 0
      vertex 3.16872 1.57295 5
      vertex 3.16872 1.57295 0
    endloop
  endfacet
  facet normal -0.382682 0.92388 0
    outer loop
      vertex 5.5875 0.571057 0
      vertex 5.18955 0.406222 5
      vertex 5.5875 0.571057 5
    endloop
  endfacet
  facet normal -0.382682 0.92388 0
    outer loop
      vertex 5.18955 0.406222 5
      vertex 5.5875 0.571057 0
      vertex 5.18955 0.406222 0
    endloop
  endfacet
  facet normal -0.92388 0.382683 0
    outer loop
      vertex 6.19144 1.175 0
      vertex 6.35628 1.57295 5
      vertex 6.35628 1.57295 0
    endloop
  endfacet
  facet normal -0.92388 0.382683 0
    outer loop
      vertex 6.35628 1.57295 5
      vertex 6.19144 1.175 0
      vertex 6.19144 1.175 5
    endloop
  endfacet
  facet normal 0.92388 0.382683 0
    outer loop
      vertex 3.33356 1.175 5
      vertex 3.16872 1.57295 0
      vertex 3.16872 1.57295 5
    endloop
  endfacet
  facet normal 0.92388 0.382683 0
    outer loop
      vertex 3.16872 1.57295 0
      vertex 3.33356 1.175 5
      vertex 3.33356 1.175 0
    endloop
  endfacet
  facet normal -1 0 0
    outer loop
      vertex -10 7.5 0
      vertex -10 16.5 5
      vertex -10 16.5 0
    endloop
  endfacet
  facet normal -1 -0 0
    outer loop
      vertex -10 16.5 5
      vertex -10 7.5 0
      vertex -10 7.5 5
    endloop
  endfacet
  facet normal 0 0 1
    outer loop
      vertex 6.35628 13.5729 5
      vertex 10 16.5 5
      vertex 6.4125 14 5
    endloop
  endfacet
  facet normal 0 0 1
    outer loop
      vertex 10 16.5 5
      vertex 6.35628 14.4271 5
      vertex 6.4125 14 5
    endloop
  endfacet
  facet normal 0 0 1
    outer loop
      vertex 10 16.5 5
      vertex 6.19144 14.825 5
      vertex 6.35628 14.4271 5
    endloop
  endfacet
  facet normal 0 0 1
    outer loop
      vertex 10 16.5 5
      vertex 5.92923 15.1667 5
      vertex 6.19144 14.825 5
    endloop
  endfacet
  facet normal 0 0 1
    outer loop
      vertex 10 16.5 5
      vertex 5.5875 15.4289 5
      vertex 5.92923 15.1667 5
    endloop
  endfacet
  facet normal 0 0 1
    outer loop
      vertex 10 16.5 5
      vertex 5.18955 15.5938 5
      vertex 5.5875 15.4289 5
    endloop
  endfacet
  facet normal 0 0 1
    outer loop
      vertex 10 16.5 5
      vertex 4.7625 15.65 5
      vertex 5.18955 15.5938 5
    endloop
  endfacet
  facet normal 0 0 1
    outer loop
      vertex -4.7625 15.65 5
      vertex 4.7625 15.65 5
      vertex 10 16.5 5
    endloop
  endfacet
  facet normal 0 0 1
    outer loop
      vertex 3.16872 14.4271 5
      vertex -3.1125 14 5
      vertex 3.1125 14 5
    endloop
  endfacet
  facet normal 0 0 1
    outer loop
      vertex -3.16872 14.4271 5
      vertex 3.16872 14.4271 5
      vertex 3.33356 14.825 5
    endloop
  endfacet
  facet normal 0 0 1
    outer loop
      vertex -3.33356 14.825 5
      vertex 3.33356 14.825 5
      vertex 3.59577 15.1667 5
    endloop
  endfacet
  facet normal 0 0 1
    outer loop
      vertex -3.59577 15.1667 5
      vertex 3.59577 15.1667 5
      vertex 3.9375 15.4289 5
    endloop
  endfacet
  facet normal 0 0 1
    outer loop
      vertex -3.9375 15.4289 5
      vertex 3.9375 15.4289 5
      vertex 4.33545 15.5938 5
    endloop
  endfacet
  facet normal 0 0 1
    outer loop
      vertex 3.16872 14.4271 5
      vertex -3.16872 14.4271 5
      vertex -3.1125 14 5
    endloop
  endfacet
  facet normal 0 0 1
    outer loop
      vertex 4.7625 15.65 5
      vertex -4.7625 15.65 5
      vertex 4.33545 15.5938 5
    endloop
  endfacet
  facet normal 0 0 1
    outer loop
      vertex 3.33356 14.825 5
      vertex -3.33356 14.825 5
      vertex -3.16872 14.4271 5
    endloop
  endfacet
  facet normal 0 0 1
    outer loop
      vertex 3.59577 15.1667 5
      vertex -3.59577 15.1667 5
      vertex -3.33356 14.825 5
    endloop
  endfacet
  facet normal 0 0 1
    outer loop
      vertex 3.9375 15.4289 5
      vertex -3.9375 15.4289 5
      vertex -3.59577 15.1667 5
    endloop
  endfacet
  facet normal 0 0 1
    outer loop
      vertex 4.33545 15.5938 5
      vertex -4.33545 15.5938 5
      vertex -3.9375 15.4289 5
    endloop
  endfacet
  facet normal 0 0 1
    outer loop
      vertex 4.33545 15.5938 5
      vertex -4.7625 15.65 5
      vertex -4.33545 15.5938 5
    endloop
  endfacet
  facet normal 0 0 1
    outer loop
      vertex -6.35628 14.4271 5
      vertex -10 16.5 5
      vertex -6.4125 14 5
    endloop
  endfacet
  facet normal 0 0 1
    outer loop
      vertex -6.19144 14.825 5
      vertex -10 16.5 5
      vertex -6.35628 14.4271 5
    endloop
  endfacet
  facet normal 0 0 1
    outer loop
      vertex -5.92923 15.1667 5
      vertex -10 16.5 5
      vertex -6.19144 14.825 5
    endloop
  endfacet
  facet normal 0 0 1
    outer loop
      vertex -5.5875 15.4289 5
      vertex -10 16.5 5
      vertex -5.92923 15.1667 5
    endloop
  endfacet
  facet normal 0 0 1
    outer loop
      vertex -5.18955 15.5938 5
      vertex -10 16.5 5
      vertex -5.5875 15.4289 5
    endloop
  endfacet
  facet normal 0 0 1
    outer loop
      vertex -4.7625 15.65 5
      vertex -10 16.5 5
      vertex -5.18955 15.5938 5
    endloop
  endfacet
  facet normal -0 0 1
    outer loop
      vertex -10 16.5 5
      vertex -4.7625 15.65 5
      vertex 10 16.5 5
    endloop
  endfacet
  facet normal 0 0 1
    outer loop
      vertex 10 16.5 5
      vertex 6.35628 13.5729 5
      vertex 10 7.5 5
    endloop
  endfacet
  facet normal -0 0 1
    outer loop
      vertex 6.19144 13.175 5
      vertex 10 7.5 5
      vertex 6.35628 13.5729 5
    endloop
  endfacet
  facet normal -0 0 1
    outer loop
      vertex 5.92923 12.8333 5
      vertex 10 7.5 5
      vertex 6.19144 13.175 5
    endloop
  endfacet
  facet normal -0 0 1
    outer loop
      vertex 5.5875 12.5711 5
      vertex 10 7.5 5
      vertex 5.92923 12.8333 5
    endloop
  endfacet
  facet normal -0 0 1
    outer loop
      vertex 5.18955 12.4062 5
      vertex 10 7.5 5
      vertex 5.5875 12.5711 5
    endloop
  endfacet
  facet normal -0 0 1
    outer loop
      vertex 4.7625 12.35 5
      vertex 10 7.5 5
      vertex 5.18955 12.4062 5
    endloop
  endfacet
  facet normal 0 0 1
    outer loop
      vertex 4.33545 12.4062 5
      vertex 10 7.5 5
      vertex 4.7625 12.35 5
    endloop
  endfacet
  facet normal 0 0 1
    outer loop
      vertex -4.33545 12.4062 5
      vertex 4.33545 12.4062 5
      vertex 3.9375 12.5711 5
    endloop
  endfacet
  facet normal 0 0 1
    outer loop
      vertex -3.9375 12.5711 5
      vertex 3.9375 12.5711 5
      vertex 3.59577 12.8333 5
    endloop
  endfacet
  facet normal -0 0 1
    outer loop
      vertex -3.1125 14 5
      vertex 3.16872 13.5729 5
      vertex 3.1125 14 5
    endloop
  endfacet
  facet normal 0 0 1
    outer loop
      vertex -3.16872 13.5729 5
      vertex 3.16872 13.5729 5
      vertex -3.1125 14 5
    endloop
  endfacet
  facet normal 0 0 1
    outer loop
      vertex 3.16872 13.5729 5
      vertex -3.16872 13.5729 5
      vertex 3.33356 13.175 5
    endloop
  endfacet
  facet normal 0 0 1
    outer loop
      vertex -3.33356 13.175 5
      vertex 3.33356 13.175 5
      vertex -3.16872 13.5729 5
    endloop
  endfacet
  facet normal 0 0 1
    outer loop
      vertex 3.33356 13.175 5
      vertex -3.33356 13.175 5
      vertex 3.59577 12.8333 5
    endloop
  endfacet
  facet normal 0 0 1
    outer loop
      vertex -3.59577 12.8333 5
      vertex 3.59577 12.8333 5
      vertex -3.33356 13.175 5
    endloop
  endfacet
  facet normal 0 0 1
    outer loop
      vertex -3.9375 12.5711 5
      vertex 3.59577 12.8333 5
      vertex -3.59577 12.8333 5
    endloop
  endfacet
  facet normal 0 0 1
    outer loop
      vertex -4.33545 12.4062 5
      vertex 3.9375 12.5711 5
      vertex -3.9375 12.5711 5
    endloop
  endfacet
  facet normal 0 0 1
    outer loop
      vertex 4.33545 12.4062 5
      vertex -4.33545 12.4062 5
      vertex 10 7.5 5
    endloop
  endfacet
  facet normal 0 0 1
    outer loop
      vertex -10 7.5 5
      vertex -4.33545 12.4062 5
      vertex -4.7625 12.35 5
    endloop
  endfacet
  facet normal 0 0 1
    outer loop
      vertex -10 7.5 5
      vertex -4.7625 12.35 5
      vertex -5.18955 12.4062 5
    endloop
  endfacet
  facet normal 0 0 1
    outer loop
      vertex -10 16.5 5
      vertex -6.35628 13.5729 5
      vertex -6.4125 14 5
    endloop
  endfacet
  facet normal 0 0 1
    outer loop
      vertex -10 7.5 5
      vertex -6.35628 13.5729 5
      vertex -10 16.5 5
    endloop
  endfacet
  facet normal 0 0 1
    outer loop
      vertex -6.35628 13.5729 5
      vertex -10 7.5 5
      vertex -6.19144 13.175 5
    endloop
  endfacet
  facet normal 0 0 1
    outer loop
      vertex -4.33545 12.4062 5
      vertex -10 7.5 5
      vertex 10 7.5 5
    endloop
  endfacet
  facet normal 0 0 1
    outer loop
      vertex -5.5875 12.5711 5
      vertex -10 7.5 5
      vertex -5.18955 12.4062 5
    endloop
  endfacet
  facet normal 0 0 1
    outer loop
      vertex -5.92923 12.8333 5
      vertex -10 7.5 5
      vertex -5.5875 12.5711 5
    endloop
  endfacet
  facet normal 0 0 1
    outer loop
      vertex -6.19144 13.175 5
      vertex -10 7.5 5
      vertex -5.92923 12.8333 5
    endloop
  endfacet
  facet normal 1 -0 0
    outer loop
      vertex 10 7.5 5
      vertex 10 16.5 0
      vertex 10 16.5 5
    endloop
  endfacet
  facet normal 1 0 0
    outer loop
      vertex 10 16.5 0
      vertex 10 7.5 5
      vertex 10 7.5 0
    endloop
  endfacet
  facet normal 0 1 -0
    outer loop
      vertex 10 16.5 0
      vertex -10 16.5 5
      vertex 10 16.5 5
    endloop
  endfacet
  facet normal 0 1 0
    outer loop
      vertex -10 16.5 5
      vertex 10 16.5 0
      vertex -10 16.5 0
    endloop
  endfacet
  facet normal 0 0 -1
    outer loop
      vertex 6.35628 13.5729 0
      vertex 10 16.5 0
      vertex 10 7.5 0
    endloop
  endfacet
  facet normal 0 0 -1
    outer loop
      vertex 10 16.5 0
      vertex 6.35628 13.5729 0
      vertex 6.4125 14 0
    endloop
  endfacet
  facet normal 0 0 -1
    outer loop
      vertex 10 7.5 0
      vertex 6.19144 13.175 0
      vertex 6.35628 13.5729 0
    endloop
  endfacet
  facet normal 0 0 -1
    outer loop
      vertex 10 7.5 0
      vertex 5.92923 12.8333 0
      vertex 6.19144 13.175 0
    endloop
  endfacet
  facet normal 0 0 -1
    outer loop
      vertex 10 7.5 0
      vertex 5.5875 12.5711 0
      vertex 5.92923 12.8333 0
    endloop
  endfacet
  facet normal 0 0 -1
    outer loop
      vertex 10 7.5 0
      vertex 5.18955 12.4062 0
      vertex 5.5875 12.5711 0
    endloop
  endfacet
  facet normal 0 0 -1
    outer loop
      vertex 10 7.5 0
      vertex 4.7625 12.35 0
      vertex 5.18955 12.4062 0
    endloop
  endfacet
  facet normal 0 0 -1
    outer loop
      vertex 10 7.5 0
      vertex 4.33545 12.4062 0
      vertex 4.7625 12.35 0
    endloop
  endfacet
  facet normal 0 0 -1
    outer loop
      vertex -4.33545 12.4062 0
      vertex 4.33545 12.4062 0
      vertex 10 7.5 0
    endloop
  endfacet
  facet normal 0 0 -1
    outer loop
      vertex 4.33545 12.4062 0
      vertex -4.33545 12.4062 0
      vertex 3.9375 12.5711 0
    endloop
  endfacet
  facet normal 0 0 -1
    outer loop
      vertex 3.16872 13.5729 0
      vertex -3.1125 14 0
      vertex 3.1125 14 0
    endloop
  endfacet
  facet normal 0 0 -1
    outer loop
      vertex -3.16872 13.5729 0
      vertex 3.16872 13.5729 0
      vertex 3.33356 13.175 0
    endloop
  endfacet
  facet normal 0 0 -1
    outer loop
      vertex -3.33356 13.175 0
      vertex 3.33356 13.175 0
      vertex 3.59577 12.8333 0
    endloop
  endfacet
  facet normal 0 0 -1
    outer loop
      vertex 3.9375 12.5711 0
      vertex -3.9375 12.5711 0
      vertex 3.59577 12.8333 0
    endloop
  endfacet
  facet normal 0 0 -1
    outer loop
      vertex 3.16872 13.5729 0
      vertex -3.16872 13.5729 0
      vertex -3.1125 14 0
    endloop
  endfacet
  facet normal 0 0 -1
    outer loop
      vertex 3.33356 13.175 0
      vertex -3.33356 13.175 0
      vertex -3.16872 13.5729 0
    endloop
  endfacet
  facet normal 0 0 -1
    outer loop
      vertex 3.59577 12.8333 0
      vertex -3.59577 12.8333 0
      vertex -3.33356 13.175 0
    endloop
  endfacet
  facet normal -0 0 -1
    outer loop
      vertex 3.59577 12.8333 0
      vertex -3.9375 12.5711 0
      vertex -3.59577 12.8333 0
    endloop
  endfacet
  facet normal -0 0 -1
    outer loop
      vertex 3.9375 12.5711 0
      vertex -4.33545 12.4062 0
      vertex -3.9375 12.5711 0
    endloop
  endfacet
  facet normal 0 0 -1
    outer loop
      vertex -10 7.5 0
      vertex -4.33545 12.4062 0
      vertex 10 7.5 0
    endloop
  endfacet
  facet normal 0 0 -1
    outer loop
      vertex -4.33545 12.4062 0
      vertex -10 7.5 0
      vertex -4.7625 12.35 0
    endloop
  endfacet
  facet normal 0 0 -1
    outer loop
      vertex -10 16.5 0
      vertex -6.35628 13.5729 0
      vertex -10 7.5 0
    endloop
  endfacet
  facet normal -0 0 -1
    outer loop
      vertex -6.19144 13.175 0
      vertex -10 7.5 0
      vertex -6.35628 13.5729 0
    endloop
  endfacet
  facet normal -0 0 -1
    outer loop
      vertex -5.92923 12.8333 0
      vertex -10 7.5 0
      vertex -6.19144 13.175 0
    endloop
  endfacet
  facet normal -0 0 -1
    outer loop
      vertex -5.5875 12.5711 0
      vertex -10 7.5 0
      vertex -5.92923 12.8333 0
    endloop
  endfacet
  facet normal -0 0 -1
    outer loop
      vertex -5.18955 12.4062 0
      vertex -10 7.5 0
      vertex -5.5875 12.5711 0
    endloop
  endfacet
  facet normal -0 0 -1
    outer loop
      vertex -4.7625 12.35 0
      vertex -10 7.5 0
      vertex -5.18955 12.4062 0
    endloop
  endfacet
  facet normal 0 0 -1
    outer loop
      vertex 6.35628 14.4271 0
      vertex 10 16.5 0
      vertex 6.4125 14 0
    endloop
  endfacet
  facet normal 0 0 -1
    outer loop
      vertex 6.19144 14.825 0
      vertex 10 16.5 0
      vertex 6.35628 14.4271 0
    endloop
  endfacet
  facet normal 0 0 -1
    outer loop
      vertex 5.92923 15.1667 0
      vertex 10 16.5 0
      vertex 6.19144 14.825 0
    endloop
  endfacet
  facet normal 0 0 -1
    outer loop
      vertex 5.5875 15.4289 0
      vertex 10 16.5 0
      vertex 5.92923 15.1667 0
    endloop
  endfacet
  facet normal 0 0 -1
    outer loop
      vertex 5.18955 15.5938 0
      vertex 10 16.5 0
      vertex 5.5875 15.4289 0
    endloop
  endfacet
  facet normal 0 0 -1
    outer loop
      vertex 4.7625 15.65 0
      vertex 10 16.5 0
      vertex 5.18955 15.5938 0
    endloop
  endfacet
  facet normal 0 0 -1
    outer loop
      vertex -4.7625 15.65 0
      vertex 4.7625 15.65 0
      vertex 4.33545 15.5938 0
    endloop
  endfacet
  facet normal 0 0 -1
    outer loop
      vertex -3.1125 14 0
      vertex 3.16872 14.4271 0
      vertex 3.1125 14 0
    endloop
  endfacet
  facet normal 0 0 -1
    outer loop
      vertex -3.16872 14.4271 0
      vertex 3.16872 14.4271 0
      vertex -3.1125 14 0
    endloop
  endfacet
  facet normal 0 0 -1
    outer loop
      vertex 3.16872 14.4271 0
      vertex -3.16872 14.4271 0
      vertex 3.33356 14.825 0
    endloop
  endfacet
  facet normal 0 0 -1
    outer loop
      vertex -3.33356 14.825 0
      vertex 3.33356 14.825 0
      vertex -3.16872 14.4271 0
    endloop
  endfacet
  facet normal 0 0 -1
    outer loop
      vertex 3.33356 14.825 0
      vertex -3.33356 14.825 0
      vertex 3.59577 15.1667 0
    endloop
  endfacet
  facet normal 0 0 -1
    outer loop
      vertex -3.59577 15.1667 0
      vertex 3.59577 15.1667 0
      vertex -3.33356 14.825 0
    endloop
  endfacet
  facet normal 0 0 -1
    outer loop
      vertex 3.59577 15.1667 0
      vertex -3.59577 15.1667 0
      vertex 3.9375 15.4289 0
    endloop
  endfacet
  facet normal 0 0 -1
    outer loop
      vertex -3.9375 15.4289 0
      vertex 3.9375 15.4289 0
      vertex -3.59577 15.1667 0
    endloop
  endfacet
  facet normal 0 0 -1
    outer loop
      vertex 3.9375 15.4289 0
      vertex -3.9375 15.4289 0
      vertex 4.33545 15.5938 0
    endloop
  endfacet
  facet normal 0 0 -1
    outer loop
      vertex -4.33545 15.5938 0
      vertex 4.33545 15.5938 0
      vertex -3.9375 15.4289 0
    endloop
  endfacet
  facet normal 0 0 -1
    outer loop
      vertex -4.7625 15.65 0
      vertex 4.33545 15.5938 0
      vertex -4.33545 15.5938 0
    endloop
  endfacet
  facet normal 0 0 -1
    outer loop
      vertex 4.7625 15.65 0
      vertex -4.7625 15.65 0
      vertex 10 16.5 0
    endloop
  endfacet
  facet normal 0 0 -1
    outer loop
      vertex -6.35628 13.5729 0
      vertex -10 16.5 0
      vertex -6.4125 14 0
    endloop
  endfacet
  facet normal 0 0 -1
    outer loop
      vertex -6.4125 14 0
      vertex -10 16.5 0
      vertex -6.35628 14.4271 0
    endloop
  endfacet
  facet normal 0 0 -1
    outer loop
      vertex -4.7625 15.65 0
      vertex -10 16.5 0
      vertex 10 16.5 0
    endloop
  endfacet
  facet normal 0 0 -1
    outer loop
      vertex -5.18955 15.5938 0
      vertex -10 16.5 0
      vertex -4.7625 15.65 0
    endloop
  endfacet
  facet normal 0 0 -1
    outer loop
      vertex -5.5875 15.4289 0
      vertex -10 16.5 0
      vertex -5.18955 15.5938 0
    endloop
  endfacet
  facet normal 0 0 -1
    outer loop
      vertex -5.92923 15.1667 0
      vertex -10 16.5 0
      vertex -5.5875 15.4289 0
    endloop
  endfacet
  facet normal 0 0 -1
    outer loop
      vertex -6.19144 14.825 0
      vertex -10 16.5 0
      vertex -5.92923 15.1667 0
    endloop
  endfacet
  facet normal 0 0 -1
    outer loop
      vertex -6.35628 14.4271 0
      vertex -10 16.5 0
      vertex -6.19144 14.825 0
    endloop
  endfacet
  facet normal 0 -1 0
    outer loop
      vertex -10 7.5 0
      vertex 10 7.5 5
      vertex -10 7.5 5
    endloop
  endfacet
  facet normal 0 -1 -0
    outer loop
      vertex 10 7.5 5
      vertex -10 7.5 0
      vertex 10 7.5 0
    endloop
  endfacet
  facet normal -0.991445 -0.130528 0
    outer loop
      vertex -3.1125 14 0
      vertex -3.16872 14.4271 5
      vertex -3.16872 14.4271 0
    endloop
  endfacet
  facet normal -0.991445 -0.130528 0
    outer loop
      vertex -3.16872 14.4271 5
      vertex -3.1125 14 0
      vertex -3.1125 14 5
    endloop
  endfacet
  facet normal 0.991445 0.130525 0
    outer loop
      vertex -6.35628 13.5729 5
      vertex -6.4125 14 0
      vertex -6.4125 14 5
    endloop
  endfacet
  facet normal 0.991445 0.130525 0
    outer loop
      vertex -6.4125 14 0
      vertex -6.35628 13.5729 5
      vertex -6.35628 13.5729 0
    endloop
  endfacet
  facet normal 0.130527 -0.991445 0
    outer loop
      vertex -5.18955 15.5938 0
      vertex -4.7625 15.65 5
      vertex -5.18955 15.5938 5
    endloop
  endfacet
  facet normal 0.130527 -0.991445 0
    outer loop
      vertex -4.7625 15.65 5
      vertex -5.18955 15.5938 0
      vertex -4.7625 15.65 0
    endloop
  endfacet
  facet normal -0.130527 0.991445 0
    outer loop
      vertex -4.33545 12.4062 0
      vertex -4.7625 12.35 5
      vertex -4.33545 12.4062 5
    endloop
  endfacet
  facet normal -0.130527 0.991445 0
    outer loop
      vertex -4.7625 12.35 5
      vertex -4.33545 12.4062 0
      vertex -4.7625 12.35 0
    endloop
  endfacet
  facet normal -0.382681 0.92388 0
    outer loop
      vertex -3.9375 12.5711 0
      vertex -4.33545 12.4062 5
      vertex -3.9375 12.5711 5
    endloop
  endfacet
  facet normal -0.382681 0.92388 0
    outer loop
      vertex -4.33545 12.4062 5
      vertex -3.9375 12.5711 0
      vertex -4.33545 12.4062 0
    endloop
  endfacet
  facet normal -0.608762 -0.793353 0
    outer loop
      vertex -3.9375 15.4289 0
      vertex -3.59577 15.1667 5
      vertex -3.9375 15.4289 5
    endloop
  endfacet
  facet normal -0.608762 -0.793353 -0
    outer loop
      vertex -3.59577 15.1667 5
      vertex -3.9375 15.4289 0
      vertex -3.59577 15.1667 0
    endloop
  endfacet
  facet normal -0.92388 -0.382683 0
    outer loop
      vertex -3.16872 14.4271 0
      vertex -3.33356 14.825 5
      vertex -3.33356 14.825 0
    endloop
  endfacet
  facet normal -0.92388 -0.382683 0
    outer loop
      vertex -3.33356 14.825 5
      vertex -3.16872 14.4271 0
      vertex -3.16872 14.4271 5
    endloop
  endfacet
  facet normal 0.793354 -0.608761 0
    outer loop
      vertex -6.19144 14.825 5
      vertex -5.92923 15.1667 0
      vertex -5.92923 15.1667 5
    endloop
  endfacet
  facet normal 0.793354 -0.608761 0
    outer loop
      vertex -5.92923 15.1667 0
      vertex -6.19144 14.825 5
      vertex -6.19144 14.825 0
    endloop
  endfacet
  facet normal 0.92388 -0.382683 0
    outer loop
      vertex -6.35628 14.4271 5
      vertex -6.19144 14.825 0
      vertex -6.19144 14.825 5
    endloop
  endfacet
  facet normal 0.92388 -0.382683 0
    outer loop
      vertex -6.19144 14.825 0
      vertex -6.35628 14.4271 5
      vertex -6.35628 14.4271 0
    endloop
  endfacet
  facet normal 0.608761 -0.793354 0
    outer loop
      vertex -5.92923 15.1667 0
      vertex -5.5875 15.4289 5
      vertex -5.92923 15.1667 5
    endloop
  endfacet
  facet normal 0.608761 -0.793354 0
    outer loop
      vertex -5.5875 15.4289 5
      vertex -5.92923 15.1667 0
      vertex -5.5875 15.4289 0
    endloop
  endfacet
  facet normal 0.608761 0.793354 -0
    outer loop
      vertex -5.5875 12.5711 0
      vertex -5.92923 12.8333 5
      vertex -5.5875 12.5711 5
    endloop
  endfacet
  facet normal 0.608761 0.793354 0
    outer loop
      vertex -5.92923 12.8333 5
      vertex -5.5875 12.5711 0
      vertex -5.92923 12.8333 0
    endloop
  endfacet
  facet normal -0.793354 -0.608761 0
    outer loop
      vertex -3.33356 14.825 0
      vertex -3.59577 15.1667 5
      vertex -3.59577 15.1667 0
    endloop
  endfacet
  facet normal -0.793354 -0.608761 0
    outer loop
      vertex -3.59577 15.1667 5
      vertex -3.33356 14.825 0
      vertex -3.33356 14.825 5
    endloop
  endfacet
  facet normal -0.130527 -0.991445 0
    outer loop
      vertex -4.7625 15.65 0
      vertex -4.33545 15.5938 5
      vertex -4.7625 15.65 5
    endloop
  endfacet
  facet normal -0.130527 -0.991445 -0
    outer loop
      vertex -4.33545 15.5938 5
      vertex -4.7625 15.65 0
      vertex -4.33545 15.5938 0
    endloop
  endfacet
  facet normal -0.382681 -0.92388 0
    outer loop
      vertex -4.33545 15.5938 0
      vertex -3.9375 15.4289 5
      vertex -4.33545 15.5938 5
    endloop
  endfacet
  facet normal -0.382681 -0.92388 -0
    outer loop
      vertex -3.9375 15.4289 5
      vertex -4.33545 15.5938 0
      vertex -3.9375 15.4289 0
    endloop
  endfacet
  facet normal 0.991445 -0.130525 0
    outer loop
      vertex -6.4125 14 5
      vertex -6.35628 14.4271 0
      vertex -6.35628 14.4271 5
    endloop
  endfacet
  facet normal 0.991445 -0.130525 0
    outer loop
      vertex -6.35628 14.4271 0
      vertex -6.4125 14 5
      vertex -6.4125 14 0
    endloop
  endfacet
  facet normal 0.382682 -0.92388 0
    outer loop
      vertex -5.5875 15.4289 0
      vertex -5.18955 15.5938 5
      vertex -5.5875 15.4289 5
    endloop
  endfacet
  facet normal 0.382682 -0.92388 0
    outer loop
      vertex -5.18955 15.5938 5
      vertex -5.5875 15.4289 0
      vertex -5.18955 15.5938 0
    endloop
  endfacet
  facet normal -0.991445 0.130527 0
    outer loop
      vertex -3.16872 13.5729 0
      vertex -3.1125 14 5
      vertex -3.1125 14 0
    endloop
  endfacet
  facet normal -0.991445 0.130527 0
    outer loop
      vertex -3.1125 14 5
      vertex -3.16872 13.5729 0
      vertex -3.16872 13.5729 5
    endloop
  endfacet
  facet normal -0.92388 0.382683 0
    outer loop
      vertex -3.33356 13.175 0
      vertex -3.16872 13.5729 5
      vertex -3.16872 13.5729 0
    endloop
  endfacet
  facet normal -0.92388 0.382683 0
    outer loop
      vertex -3.16872 13.5729 5
      vertex -3.33356 13.175 0
      vertex -3.33356 13.175 5
    endloop
  endfacet
  facet normal 0.382682 0.92388 -0
    outer loop
      vertex -5.18955 12.4062 0
      vertex -5.5875 12.5711 5
      vertex -5.18955 12.4062 5
    endloop
  endfacet
  facet normal 0.382682 0.92388 0
    outer loop
      vertex -5.5875 12.5711 5
      vertex -5.18955 12.4062 0
      vertex -5.5875 12.5711 0
    endloop
  endfacet
  facet normal -0.608762 0.793353 0
    outer loop
      vertex -3.59577 12.8333 0
      vertex -3.9375 12.5711 5
      vertex -3.59577 12.8333 5
    endloop
  endfacet
  facet normal -0.608762 0.793353 0
    outer loop
      vertex -3.9375 12.5711 5
      vertex -3.59577 12.8333 0
      vertex -3.9375 12.5711 0
    endloop
  endfacet
  facet normal 0.130527 0.991445 -0
    outer loop
      vertex -4.7625 12.35 0
      vertex -5.18955 12.4062 5
      vertex -4.7625 12.35 5
    endloop
  endfacet
  facet normal 0.130527 0.991445 0
    outer loop
      vertex -5.18955 12.4062 5
      vertex -4.7625 12.35 0
      vertex -5.18955 12.4062 0
    endloop
  endfacet
  facet normal 0.793354 0.608761 0
    outer loop
      vertex -5.92923 12.8333 5
      vertex -6.19144 13.175 0
      vertex -6.19144 13.175 5
    endloop
  endfacet
  facet normal 0.793354 0.608761 0
    outer loop
      vertex -6.19144 13.175 0
      vertex -5.92923 12.8333 5
      vertex -5.92923 12.8333 0
    endloop
  endfacet
  facet normal 0.92388 0.382683 0
    outer loop
      vertex -6.19144 13.175 5
      vertex -6.35628 13.5729 0
      vertex -6.35628 13.5729 5
    endloop
  endfacet
  facet normal 0.92388 0.382683 0
    outer loop
      vertex -6.35628 13.5729 0
      vertex -6.19144 13.175 5
      vertex -6.19144 13.175 0
    endloop
  endfacet
  facet normal -0.793354 0.608761 0
    outer loop
      vertex -3.59577 12.8333 0
      vertex -3.33356 13.175 5
      vertex -3.33356 13.175 0
    endloop
  endfacet
  facet normal -0.793354 0.608761 0
    outer loop
      vertex -3.33356 13.175 5
      vertex -3.59577 12.8333 0
      vertex -3.59577 12.8333 5
    endloop
  endfacet
  facet normal -0.991445 -0.130525 0
    outer loop
      vertex 6.4125 14 0
      vertex 6.35628 14.4271 5
      vertex 6.35628 14.4271 0
    endloop
  endfacet
  facet normal -0.991445 -0.130525 0
    outer loop
      vertex 6.35628 14.4271 5
      vertex 6.4125 14 0
      vertex 6.4125 14 5
    endloop
  endfacet
  facet normal 0.991445 -0.130528 0
    outer loop
      vertex 3.1125 14 5
      vertex 3.16872 14.4271 0
      vertex 3.16872 14.4271 5
    endloop
  endfacet
  facet normal 0.991445 -0.130528 0
    outer loop
      vertex 3.16872 14.4271 0
      vertex 3.1125 14 5
      vertex 3.1125 14 0
    endloop
  endfacet
  facet normal -0.130527 -0.991445 0
    outer loop
      vertex 4.7625 15.65 0
      vertex 5.18955 15.5938 5
      vertex 4.7625 15.65 5
    endloop
  endfacet
  facet normal -0.130527 -0.991445 -0
    outer loop
      vertex 5.18955 15.5938 5
      vertex 4.7625 15.65 0
      vertex 5.18955 15.5938 0
    endloop
  endfacet
  facet normal 0.130527 0.991445 -0
    outer loop
      vertex 4.7625 12.35 0
      vertex 4.33545 12.4062 5
      vertex 4.7625 12.35 5
    endloop
  endfacet
  facet normal 0.130527 0.991445 0
    outer loop
      vertex 4.33545 12.4062 5
      vertex 4.7625 12.35 0
      vertex 4.33545 12.4062 0
    endloop
  endfacet
  facet normal -0.793354 -0.608761 0
    outer loop
      vertex 6.19144 14.825 0
      vertex 5.92923 15.1667 5
      vertex 5.92923 15.1667 0
    endloop
  endfacet
  facet normal -0.793354 -0.608761 0
    outer loop
      vertex 5.92923 15.1667 5
      vertex 6.19144 14.825 0
      vertex 6.19144 14.825 5
    endloop
  endfacet
  facet normal -0.92388 -0.382683 0
    outer loop
      vertex 6.35628 14.4271 0
      vertex 6.19144 14.825 5
      vertex 6.19144 14.825 0
    endloop
  endfacet
  facet normal -0.92388 -0.382683 0
    outer loop
      vertex 6.19144 14.825 5
      vertex 6.35628 14.4271 0
      vertex 6.35628 14.4271 5
    endloop
  endfacet
  facet normal -0.608761 -0.793354 0
    outer loop
      vertex 5.5875 15.4289 0
      vertex 5.92923 15.1667 5
      vertex 5.5875 15.4289 5
    endloop
  endfacet
  facet normal -0.608761 -0.793354 -0
    outer loop
      vertex 5.92923 15.1667 5
      vertex 5.5875 15.4289 0
      vertex 5.92923 15.1667 0
    endloop
  endfacet
  facet normal 0.608762 -0.793353 0
    outer loop
      vertex 3.59577 15.1667 0
      vertex 3.9375 15.4289 5
      vertex 3.59577 15.1667 5
    endloop
  endfacet
  facet normal 0.608762 -0.793353 0
    outer loop
      vertex 3.9375 15.4289 5
      vertex 3.59577 15.1667 0
      vertex 3.9375 15.4289 0
    endloop
  endfacet
  facet normal 0.793354 -0.608761 0
    outer loop
      vertex 3.33356 14.825 5
      vertex 3.59577 15.1667 0
      vertex 3.59577 15.1667 5
    endloop
  endfacet
  facet normal 0.793354 -0.608761 0
    outer loop
      vertex 3.59577 15.1667 0
      vertex 3.33356 14.825 5
      vertex 3.33356 14.825 0
    endloop
  endfacet
  facet normal 0.382681 -0.92388 0
    outer loop
      vertex 3.9375 15.4289 0
      vertex 4.33545 15.5938 5
      vertex 3.9375 15.4289 5
    endloop
  endfacet
  facet normal 0.382681 -0.92388 0
    outer loop
      vertex 4.33545 15.5938 5
      vertex 3.9375 15.4289 0
      vertex 4.33545 15.5938 0
    endloop
  endfacet
  facet normal 0.608762 0.793353 -0
    outer loop
      vertex 3.9375 12.5711 0
      vertex 3.59577 12.8333 5
      vertex 3.9375 12.5711 5
    endloop
  endfacet
  facet normal 0.608762 0.793353 0
    outer loop
      vertex 3.59577 12.8333 5
      vertex 3.9375 12.5711 0
      vertex 3.59577 12.8333 0
    endloop
  endfacet
  facet normal -0.382682 -0.92388 0
    outer loop
      vertex 5.18955 15.5938 0
      vertex 5.5875 15.4289 5
      vertex 5.18955 15.5938 5
    endloop
  endfacet
  facet normal -0.382682 -0.92388 -0
    outer loop
      vertex 5.5875 15.4289 5
      vertex 5.18955 15.5938 0
      vertex 5.5875 15.4289 0
    endloop
  endfacet
  facet normal 0.92388 -0.382683 0
    outer loop
      vertex 3.16872 14.4271 5
      vertex 3.33356 14.825 0
      vertex 3.33356 14.825 5
    endloop
  endfacet
  facet normal 0.92388 -0.382683 0
    outer loop
      vertex 3.33356 14.825 0
      vertex 3.16872 14.4271 5
      vertex 3.16872 14.4271 0
    endloop
  endfacet
  facet normal 0.130527 -0.991445 0
    outer loop
      vertex 4.33545 15.5938 0
      vertex 4.7625 15.65 5
      vertex 4.33545 15.5938 5
    endloop
  endfacet
  facet normal 0.130527 -0.991445 0
    outer loop
      vertex 4.7625 15.65 5
      vertex 4.33545 15.5938 0
      vertex 4.7625 15.65 0
    endloop
  endfacet
  facet normal -0.130527 0.991445 0
    outer loop
      vertex 5.18955 12.4062 0
      vertex 4.7625 12.35 5
      vertex 5.18955 12.4062 5
    endloop
  endfacet
  facet normal -0.130527 0.991445 0
    outer loop
      vertex 4.7625 12.35 5
      vertex 5.18955 12.4062 0
      vertex 4.7625 12.35 0
    endloop
  endfacet
  facet normal -0.608761 0.793354 0
    outer loop
      vertex 5.92923 12.8333 0
      vertex 5.5875 12.5711 5
      vertex 5.92923 12.8333 5
    endloop
  endfacet
  facet normal -0.608761 0.793354 0
    outer loop
      vertex 5.5875 12.5711 5
      vertex 5.92923 12.8333 0
      vertex 5.5875 12.5711 0
    endloop
  endfacet
  facet normal -0.793354 0.608761 0
    outer loop
      vertex 5.92923 12.8333 0
      vertex 6.19144 13.175 5
      vertex 6.19144 13.175 0
    endloop
  endfacet
  facet normal -0.793354 0.608761 0
    outer loop
      vertex 6.19144 13.175 5
      vertex 5.92923 12.8333 0
      vertex 5.92923 12.8333 5
    endloop
  endfacet
  facet normal -0.991445 0.130525 0
    outer loop
      vertex 6.35628 13.5729 0
      vertex 6.4125 14 5
      vertex 6.4125 14 0
    endloop
  endfacet
  facet normal -0.991445 0.130525 0
    outer loop
      vertex 6.4125 14 5
      vertex 6.35628 13.5729 0
      vertex 6.35628 13.5729 5
    endloop
  endfacet
  facet normal 0.382681 0.92388 -0
    outer loop
      vertex 4.33545 12.4062 0
      vertex 3.9375 12.5711 5
      vertex 4.33545 12.4062 5
    endloop
  endfacet
  facet normal 0.382681 0.92388 0
    outer loop
      vertex 3.9375 12.5711 5
      vertex 4.33545 12.4062 0
      vertex 3.9375 12.5711 0
    endloop
  endfacet
  facet normal 0.793354 0.608761 0
    outer loop
      vertex 3.59577 12.8333 5
      vertex 3.33356 13.175 0
      vertex 3.33356 13.175 5
    endloop
  endfacet
  facet normal 0.793354 0.608761 0
    outer loop
      vertex 3.33356 13.175 0
      vertex 3.59577 12.8333 5
      vertex 3.59577 12.8333 0
    endloop
  endfacet
  facet normal 0.991445 0.130527 0
    outer loop
      vertex 3.16872 13.5729 5
      vertex 3.1125 14 0
      vertex 3.1125 14 5
    endloop
  endfacet
  facet normal 0.991445 0.130527 0
    outer loop
      vertex 3.1125 14 0
      vertex 3.16872 13.5729 5
      vertex 3.16872 13.5729 0
    endloop
  endfacet
  facet normal -0.382682 0.92388 0
    outer loop
      vertex 5.5875 12.5711 0
      vertex 5.18955 12.4062 5
      vertex 5.5875 12.5711 5
    endloop
  endfacet
  facet normal -0.382682 0.92388 0
    outer loop
      vertex 5.18955 12.4062 5
      vertex 5.5875 12.5711 0
      vertex 5.18955 12.4062 0
    endloop
  endfacet
  facet normal -0.92388 0.382683 0
    outer loop
      vertex 6.19144 13.175 0
      vertex 6.35628 13.5729 5
      vertex 6.35628 13.5729 0
    endloop
  endfacet
  facet normal -0.92388 0.382683 0
    outer loop
      vertex 6.35628 13.5729 5
      vertex 6.19144 13.175 0
      vertex 6.19144 13.175 5
    endloop
  endfacet
  facet normal 0.92388 0.382683 0
    outer loop
      vertex 3.33356 13.175 5
      vertex 3.16872 13.5729 0
      vertex 3.16872 13.5729 5
    endloop
  endfacet
  facet normal 0.92388 0.382683 0
    outer loop
      vertex 3.16872 13.5729 0
      vertex 3.33356 13.175 5
      vertex 3.33356 13.175 0
    endloop
  endfacet
endsolid OpenSCAD_Model
