solid OpenSCAD_Model
  facet normal -1 0 0
    outer loop
      vertex -10 -4.5 0
      vertex -10 4.5 5
      vertex -10 4.5 0
    endloop
  endfacet
  facet normal -1 -0 0
    outer loop
      vertex -10 4.5 5
      vertex -10 -4.5 0
      vertex -10 -4.5 5
    endloop
  endfacet
  facet normal 0 0 1
    outer loop
      vertex 6.21139 1.61177 5
      vertex 10 4.5 5
      vertex 6.2625 2 5
    endloop
  endfacet
  facet normal 0 0 1
    outer loop
      vertex 10 4.5 5
      vertex 6.21139 2.38823 5
      vertex 6.2625 2 5
    endloop
  endfacet
  facet normal 0 0 1
    outer loop
      vertex 10 4.5 5
      vertex 6.06154 2.75 5
      vertex 6.21139 2.38823 5
    endloop
  endfacet
  facet normal 0 0 1
    outer loop
      vertex 10 4.5 5
      vertex 5.82316 3.06066 5
      vertex 6.06154 2.75 5
    endloop
  endfacet
  facet normal 0 0 1
    outer loop
      vertex 10 4.5 5
      vertex 5.5125 3.29904 5
      vertex 5.82316 3.06066 5
    endloop
  endfacet
  facet normal 0 0 1
    outer loop
      vertex 10 4.5 5
      vertex 5.15073 3.44889 5
      vertex 5.5125 3.29904 5
    endloop
  endfacet
  facet normal 0 0 1
    outer loop
      vertex 10 4.5 5
      vertex 4.7625 3.5 5
      vertex 5.15073 3.44889 5
    endloop
  endfacet
  facet normal 0 0 1
    outer loop
      vertex -4.7625 3.5 5
      vertex 4.7625 3.5 5
      vertex 10 4.5 5
    endloop
  endfacet
  facet normal 0 0 1
    outer loop
      vertex 3.31361 2.38823 5
      vertex -3.2625 2 5
      vertex 3.2625 2 5
    endloop
  endfacet
  facet normal 0 0 1
    outer loop
      vertex -3.31361 2.38823 5
      vertex 3.31361 2.38823 5
      vertex 3.46346 2.75 5
    endloop
  endfacet
  facet normal 0 0 1
    outer loop
      vertex -3.46346 2.75 5
      vertex 3.46346 2.75 5
      vertex 3.70184 3.06066 5
    endloop
  endfacet
  facet normal 0 0 1
    outer loop
      vertex -3.70184 3.06066 5
      vertex 3.70184 3.06066 5
      vertex 4.0125 3.29904 5
    endloop
  endfacet
  facet normal 0 0 1
    outer loop
      vertex -4.0125 3.29904 5
      vertex 4.0125 3.29904 5
      vertex 4.37427 3.44889 5
    endloop
  endfacet
  facet normal 0 0 1
    outer loop
      vertex 3.31361 2.38823 5
      vertex -3.31361 2.38823 5
      vertex -3.2625 2 5
    endloop
  endfacet
  facet normal 0 0 1
    outer loop
      vertex 4.7625 3.5 5
      vertex -4.7625 3.5 5
      vertex 4.37427 3.44889 5
    endloop
  endfacet
  facet normal 0 0 1
    outer loop
      vertex 3.46346 2.75 5
      vertex -3.46346 2.75 5
      vertex -3.31361 2.38823 5
    endloop
  endfacet
  facet normal 0 0 1
    outer loop
      vertex 3.70184 3.06066 5
      vertex -3.70184 3.06066 5
      vertex -3.46346 2.75 5
    endloop
  endfacet
  facet normal 0 0 1
    outer loop
      vertex 4.0125 3.29904 5
      vertex -4.0125 3.29904 5
      vertex -3.70184 3.06066 5
    endloop
  endfacet
  facet normal 0 0 1
    outer loop
      vertex 4.37427 3.44889 5
      vertex -4.37427 3.44889 5
      vertex -4.0125 3.29904 5
    endloop
  endfacet
  facet normal 0 0 1
    outer loop
      vertex 4.37427 3.44889 5
      vertex -4.7625 3.5 5
      vertex -4.37427 3.44889 5
    endloop
  endfacet
  facet normal 0 0 1
    outer loop
      vertex -6.21139 2.38823 5
      vertex -10 4.5 5
      vertex -6.2625 2 5
    endloop
  endfacet
  facet normal 0 0 1
    outer loop
      vertex -6.06154 2.75 5
      vertex -10 4.5 5
      vertex -6.21139 2.38823 5
    endloop
  endfacet
  facet normal 0 0 1
    outer loop
      vertex -5.82316 3.06066 5
      vertex -10 4.5 5
      vertex -6.06154 2.75 5
    endloop
  endfacet
  facet normal 0 0 1
    outer loop
      vertex -5.5125 3.29904 5
      vertex -10 4.5 5
      vertex -5.82316 3.06066 5
    endloop
  endfacet
  facet normal 0 0 1
    outer loop
      vertex -5.15073 3.44889 5
      vertex -10 4.5 5
      vertex -5.5125 3.29904 5
    endloop
  endfacet
  facet normal 0 0 1
    outer loop
      vertex -4.7625 3.5 5
      vertex -10 4.5 5
      vertex -5.15073 3.44889 5
    endloop
  endfacet
  facet normal -0 0 1
    outer loop
      vertex -10 4.5 5
      vertex -4.7625 3.5 5
      vertex 10 4.5 5
    endloop
  endfacet
  facet normal 0 0 1
    outer loop
      vertex 10 4.5 5
      vertex 6.21139 1.61177 5
      vertex 10 -4.5 5
    endloop
  endfacet
  facet normal -0 0 1
    outer loop
      vertex 6.06154 1.25 5
      vertex 10 -4.5 5
      vertex 6.21139 1.61177 5
    endloop
  endfacet
  facet normal -0 0 1
    outer loop
      vertex 5.82316 0.93934 5
      vertex 10 -4.5 5
      vertex 6.06154 1.25 5
    endloop
  endfacet
  facet normal -0 0 1
    outer loop
      vertex 5.5125 0.700962 5
      vertex 10 -4.5 5
      vertex 5.82316 0.93934 5
    endloop
  endfacet
  facet normal -0 0 1
    outer loop
      vertex 5.15073 0.551111 5
      vertex 10 -4.5 5
      vertex 5.5125 0.700962 5
    endloop
  endfacet
  facet normal -0 0 1
    outer loop
      vertex 4.7625 0.5 5
      vertex 10 -4.5 5
      vertex 5.15073 0.551111 5
    endloop
  endfacet
  facet normal 0 0 1
    outer loop
      vertex 4.37427 0.551111 5
      vertex 10 -4.5 5
      vertex 4.7625 0.5 5
    endloop
  endfacet
  facet normal 0 0 1
    outer loop
      vertex -4.37427 0.551111 5
      vertex 4.37427 0.551111 5
      vertex 4.0125 0.700962 5
    endloop
  endfacet
  facet normal 0 0 1
    outer loop
      vertex -4.0125 0.700962 5
      vertex 4.0125 0.700962 5
      vertex 3.70184 0.93934 5
    endloop
  endfacet
  facet normal -0 0 1
    outer loop
      vertex -3.2625 2 5
      vertex 3.31361 1.61177 5
      vertex 3.2625 2 5
    endloop
  endfacet
  facet normal 0 0 1
    outer loop
      vertex -3.31361 1.61177 5
      vertex 3.31361 1.61177 5
      vertex -3.2625 2 5
    endloop
  endfacet
  facet normal 0 0 1
    outer loop
      vertex 3.31361 1.61177 5
      vertex -3.31361 1.61177 5
      vertex 3.46346 1.25 5
    endloop
  endfacet
  facet normal 0 0 1
    outer loop
      vertex -3.46346 1.25 5
      vertex 3.46346 1.25 5
      vertex -3.31361 1.61177 5
    endloop
  endfacet
  facet normal 0 0 1
    outer loop
      vertex 3.46346 1.25 5
      vertex -3.46346 1.25 5
      vertex 3.70184 0.93934 5
    endloop
  endfacet
  facet normal 0 0 1
    outer loop
      vertex -3.70184 0.93934 5
      vertex 3.70184 0.93934 5
      vertex -3.46346 1.25 5
    endloop
  endfacet
  facet normal 0 0 1
    outer loop
      vertex -4.0125 0.700962 5
      vertex 3.70184 0.93934 5
      vertex -3.70184 0.93934 5
    endloop
  endfacet
  facet normal 0 0 1
    outer loop
      vertex -4.37427 0.551111 5
      vertex 4.0125 0.700962 5
      vertex -4.0125 0.700962 5
    endloop
  endfacet
  facet normal 0 0 1
    outer loop
      vertex 4.37427 0.551111 5
      vertex -4.37427 0.551111 5
      vertex 10 -4.5 5
    endloop
  endfacet
  facet normal 0 0 1
    outer loop
      vertex -10 -4.5 5
      vertex -4.37427 0.551111 5
      vertex -4.7625 0.5 5
    endloop
  endfacet
  facet normal 0 0 1
    outer loop
      vertex -10 -4.5 5
      vertex -4.7625 0.5 5
      vertex -5.15073 0.551111 5
    endloop
  endfacet
  facet normal 0 0 1
    outer loop
      vertex -10 4.5 5
      vertex -6.21139 1.61177 5
      vertex -6.2625 2 5
    endloop
  endfacet
  facet normal 0 0 1
    outer loop
      vertex -10 -4.5 5
      vertex -6.21139 1.61177 5
      vertex -10 4.5 5
    endloop
  endfacet
  facet normal 0 0 1
    outer loop
      vertex -6.21139 1.61177 5
      vertex -10 -4.5 5
      vertex -6.06154 1.25 5
    endloop
  endfacet
  facet normal 0 0 1
    outer loop
      vertex -4.37427 0.551111 5
      vertex -10 -4.5 5
      vertex 10 -4.5 5
    endloop
  endfacet
  facet normal 0 0 1
    outer loop
      vertex -5.5125 0.700962 5
      vertex -10 -4.5 5
      vertex -5.15073 0.551111 5
    endloop
  endfacet
  facet normal 0 0 1
    outer loop
      vertex -5.82316 0.93934 5
      vertex -10 -4.5 5
      vertex -5.5125 0.700962 5
    endloop
  endfacet
  facet normal 0 0 1
    outer loop
      vertex -6.06154 1.25 5
      vertex -10 -4.5 5
      vertex -5.82316 0.93934 5
    endloop
  endfacet
  facet normal 1 -0 0
    outer loop
      vertex 10 -4.5 5
      vertex 10 4.5 0
      vertex 10 4.5 5
    endloop
  endfacet
  facet normal 1 0 0
    outer loop
      vertex 10 4.5 0
      vertex 10 -4.5 5
      vertex 10 -4.5 0
    endloop
  endfacet
  facet normal 0 1 -0
    outer loop
      vertex 10 4.5 0
      vertex -10 4.5 5
      vertex 10 4.5 5
    endloop
  endfacet
  facet normal 0 1 0
    outer loop
      vertex -10 4.5 5
      vertex 10 4.5 0
      vertex -10 4.5 0
    endloop
  endfacet
  facet normal 0 0 -1
    outer loop
      vertex 6.21139 1.61177 0
      vertex 10 4.5 0
      vertex 10 -4.5 0
    endloop
  endfacet
  facet normal 0 0 -1
    outer loop
      vertex 10 4.5 0
      vertex 6.21139 1.61177 0
      vertex 6.2625 2 0
    endloop
  endfacet
  facet normal 0 0 -1
    outer loop
      vertex 10 -4.5 0
      vertex 6.06154 1.25 0
      vertex 6.21139 1.61177 0
    endloop
  endfacet
  facet normal 0 0 -1
    outer loop
      vertex 10 -4.5 0
      vertex 5.82316 0.93934 0
      vertex 6.06154 1.25 0
    endloop
  endfacet
  facet normal 0 0 -1
    outer loop
      vertex 10 -4.5 0
      vertex 5.5125 0.700962 0
      vertex 5.82316 0.93934 0
    endloop
  endfacet
  facet normal 0 0 -1
    outer loop
      vertex 10 -4.5 0
      vertex 5.15073 0.551111 0
      vertex 5.5125 0.700962 0
    endloop
  endfacet
  facet normal 0 0 -1
    outer loop
      vertex 10 -4.5 0
      vertex 4.7625 0.5 0
      vertex 5.15073 0.551111 0
    endloop
  endfacet
  facet normal 0 0 -1
    outer loop
      vertex 10 -4.5 0
      vertex 4.37427 0.551111 0
      vertex 4.7625 0.5 0
    endloop
  endfacet
  facet normal 0 0 -1
    outer loop
      vertex -4.37427 0.551111 0
      vertex 4.37427 0.551111 0
      vertex 10 -4.5 0
    endloop
  endfacet
  facet normal 0 0 -1
    outer loop
      vertex 4.37427 0.551111 0
      vertex -4.37427 0.551111 0
      vertex 4.0125 0.700962 0
    endloop
  endfacet
  facet normal 0 0 -1
    outer loop
      vertex 3.31361 1.61177 0
      vertex -3.2625 2 0
      vertex 3.2625 2 0
    endloop
  endfacet
  facet normal 0 0 -1
    outer loop
      vertex -3.31361 1.61177 0
      vertex 3.31361 1.61177 0
      vertex 3.46346 1.25 0
    endloop
  endfacet
  facet normal 0 0 -1
    outer loop
      vertex -3.46346 1.25 0
      vertex 3.46346 1.25 0
      vertex 3.70184 0.93934 0
    endloop
  endfacet
  facet normal 0 0 -1
    outer loop
      vertex 4.0125 0.700962 0
      vertex -4.0125 0.700962 0
      vertex 3.70184 0.93934 0
    endloop
  endfacet
  facet normal 0 0 -1
    outer loop
      vertex 3.31361 1.61177 0
      vertex -3.31361 1.61177 0
      vertex -3.2625 2 0
    endloop
  endfacet
  facet normal 0 0 -1
    outer loop
      vertex 3.46346 1.25 0
      vertex -3.46346 1.25 0
      vertex -3.31361 1.61177 0
    endloop
  endfacet
  facet normal 0 0 -1
    outer loop
      vertex 3.70184 0.93934 0
      vertex -3.70184 0.93934 0
      vertex -3.46346 1.25 0
    endloop
  endfacet
  facet normal -0 0 -1
    outer loop
      vertex 3.70184 0.93934 0
      vertex -4.0125 0.700962 0
      vertex -3.70184 0.93934 0
    endloop
  endfacet
  facet normal -0 0 -1
    outer loop
      vertex 4.0125 0.700962 0
      vertex -4.37427 0.551111 0
      vertex -4.0125 0.700962 0
    endloop
  endfacet
  facet normal 0 0 -1
    outer loop
      vertex -10 -4.5 0
      vertex -4.37427 0.551111 0
      vertex 10 -4.5 0
    endloop
  endfacet
  facet normal 0 0 -1
    outer loop
      vertex -4.37427 0.551111 0
      vertex -10 -4.5 0
      vertex -4.7625 0.5 0
    endloop
  endfacet
  facet normal 0 0 -1
    outer loop
      vertex -10 4.5 0
      vertex -6.21139 1.61177 0
      vertex -10 -4.5 0
    endloop
  endfacet
  facet normal -0 0 -1
    outer loop
      vertex -6.06154 1.25 0
      vertex -10 -4.5 0
      vertex -6.21139 1.61177 0
    endloop
  endfacet
  facet normal -0 0 -1
    outer loop
      vertex -5.82316 0.93934 0
      vertex -10 -4.5 0
      vertex -6.06154 1.25 0
    endloop
  endfacet
  facet normal -0 0 -1
    outer loop
      vertex -5.5125 0.700962 0
      vertex -10 -4.5 0
      vertex -5.82316 0.93934 0
    endloop
  endfacet
  facet normal -0 0 -1
    outer loop
      vertex -5.15073 0.551111 0
      vertex -10 -4.5 0
      vertex -5.5125 0.700962 0
    endloop
  endfacet
  facet normal -0 0 -1
    outer loop
      vertex -4.7625 0.5 0
      vertex -10 -4.5 0
      vertex -5.15073 0.551111 0
    endloop
  endfacet
  facet normal 0 0 -1
    outer loop
      vertex 6.21139 2.38823 0
      vertex 10 4.5 0
      vertex 6.2625 2 0
    endloop
  endfacet
  facet normal 0 0 -1
    outer loop
      vertex 6.06154 2.75 0
      vertex 10 4.5 0
      vertex 6.21139 2.38823 0
    endloop
  endfacet
  facet normal 0 0 -1
    outer loop
      vertex 5.82316 3.06066 0
      vertex 10 4.5 0
      vertex 6.06154 2.75 0
    endloop
  endfacet
  facet normal 0 0 -1
    outer loop
      vertex 5.5125 3.29904 0
      vertex 10 4.5 0
      vertex 5.82316 3.06066 0
    endloop
  endfacet
  facet normal 0 0 -1
    outer loop
      vertex 5.15073 3.44889 0
      vertex 10 4.5 0
      vertex 5.5125 3.29904 0
    endloop
  endfacet
  facet normal 0 0 -1
    outer loop
      vertex 4.7625 3.5 0
      vertex 10 4.5 0
      vertex 5.15073 3.44889 0
    endloop
  endfacet
  facet normal 0 0 -1
    outer loop
      vertex -4.7625 3.5 0
      vertex 4.7625 3.5 0
      vertex 4.37427 3.44889 0
    endloop
  endfacet
  facet normal 0 0 -1
    outer loop
      vertex -3.2625 2 0
      vertex 3.31361 2.38823 0
      vertex 3.2625 2 0
    endloop
  endfacet
  facet normal 0 0 -1
    outer loop
      vertex -3.31361 2.38823 0
      vertex 3.31361 2.38823 0
      vertex -3.2625 2 0
    endloop
  endfacet
  facet normal 0 0 -1
    outer loop
      vertex 3.31361 2.38823 0
      vertex -3.31361 2.38823 0
      vertex 3.46346 2.75 0
    endloop
  endfacet
  facet normal 0 0 -1
    outer loop
      vertex -3.46346 2.75 0
      vertex 3.46346 2.75 0
      vertex -3.31361 2.38823 0
    endloop
  endfacet
  facet normal 0 0 -1
    outer loop
      vertex 3.46346 2.75 0
      vertex -3.46346 2.75 0
      vertex 3.70184 3.06066 0
    endloop
  endfacet
  facet normal 0 0 -1
    outer loop
      vertex -3.70184 3.06066 0
      vertex 3.70184 3.06066 0
      vertex -3.46346 2.75 0
    endloop
  endfacet
  facet normal 0 0 -1
    outer loop
      vertex 3.70184 3.06066 0
      vertex -3.70184 3.06066 0
      vertex 4.0125 3.29904 0
    endloop
  endfacet
  facet normal 0 0 -1
    outer loop
      vertex -4.0125 3.29904 0
      vertex 4.0125 3.29904 0
      vertex -3.70184 3.06066 0
    endloop
  endfacet
  facet normal 0 0 -1
    outer loop
      vertex 4.0125 3.29904 0
      vertex -4.0125 3.29904 0
      vertex 4.37427 3.44889 0
    endloop
  endfacet
  facet normal 0 0 -1
    outer loop
      vertex -4.37427 3.44889 0
      vertex 4.37427 3.44889 0
      vertex -4.0125 3.29904 0
    endloop
  endfacet
  facet normal 0 0 -1
    outer loop
      vertex -4.7625 3.5 0
      vertex 4.37427 3.44889 0
      vertex -4.37427 3.44889 0
    endloop
  endfacet
  facet normal 0 0 -1
    outer loop
      vertex 4.7625 3.5 0
      vertex -4.7625 3.5 0
      vertex 10 4.5 0
    endloop
  endfacet
  facet normal 0 0 -1
    outer loop
      vertex -6.21139 1.61177 0
      vertex -10 4.5 0
      vertex -6.2625 2 0
    endloop
  endfacet
  facet normal 0 0 -1
    outer loop
      vertex -6.2625 2 0
      vertex -10 4.5 0
      vertex -6.21139 2.38823 0
    endloop
  endfacet
  facet normal 0 0 -1
    outer loop
      vertex -4.7625 3.5 0
      vertex -10 4.5 0
      vertex 10 4.5 0
    endloop
  endfacet
  facet normal 0 0 -1
    outer loop
      vertex -5.15073 3.44889 0
      vertex -10 4.5 0
      vertex -4.7625 3.5 0
    endloop
  endfacet
  facet normal 0 0 -1
    outer loop
      vertex -5.5125 3.29904 0
      vertex -10 4.5 0
      vertex -5.15073 3.44889 0
    endloop
  endfacet
  facet normal 0 0 -1
    outer loop
      vertex -5.82316 3.06066 0
      vertex -10 4.5 0
      vertex -5.5125 3.29904 0
    endloop
  endfacet
  facet normal 0 0 -1
    outer loop
      vertex -6.06154 2.75 0
      vertex -10 4.5 0
      vertex -5.82316 3.06066 0
    endloop
  endfacet
  facet normal 0 0 -1
    outer loop
      vertex -6.21139 2.38823 0
      vertex -10 4.5 0
      vertex -6.06154 2.75 0
    endloop
  endfacet
  facet normal 0 -1 0
    outer loop
      vertex -10 -4.5 0
      vertex 10 -4.5 5
      vertex -10 -4.5 5
    endloop
  endfacet
  facet normal 0 -1 -0
    outer loop
      vertex 10 -4.5 5
      vertex -10 -4.5 0
      vertex 10 -4.5 0
    endloop
  endfacet
  facet normal -0.991445 -0.130526 0
    outer loop
      vertex -3.2625 2 0
      vertex -3.31361 2.38823 5
      vertex -3.31361 2.38823 0
    endloop
  endfacet
  facet normal -0.991445 -0.130526 0
    outer loop
      vertex -3.31361 2.38823 5
      vertex -3.2625 2 0
      vertex -3.2625 2 5
    endloop
  endfacet
  facet normal 0.991445 -0.130526 0
    outer loop
      vertex -6.2625 2 5
      vertex -6.21139 2.38823 0
      vertex -6.21139 2.38823 5
    endloop
  endfacet
  facet normal 0.991445 -0.130526 0
    outer loop
      vertex -6.21139 2.38823 0
      vertex -6.2625 2 5
      vertex -6.2625 2 0
    endloop
  endfacet
  facet normal 0.130526 -0.991445 0
    outer loop
      vertex -5.15073 3.44889 0
      vertex -4.7625 3.5 5
      vertex -5.15073 3.44889 5
    endloop
  endfacet
  facet normal 0.130526 -0.991445 0
    outer loop
      vertex -4.7625 3.5 5
      vertex -5.15073 3.44889 0
      vertex -4.7625 3.5 0
    endloop
  endfacet
  facet normal -0.130526 0.991445 0
    outer loop
      vertex -4.37427 0.551111 0
      vertex -4.7625 0.5 5
      vertex -4.37427 0.551111 5
    endloop
  endfacet
  facet normal -0.130526 0.991445 0
    outer loop
      vertex -4.7625 0.5 5
      vertex -4.37427 0.551111 0
      vertex -4.7625 0.5 0
    endloop
  endfacet
  facet normal -0.382683 0.92388 0
    outer loop
      vertex -4.0125 0.700962 0
      vertex -4.37427 0.551111 5
      vertex -4.0125 0.700962 5
    endloop
  endfacet
  facet normal -0.382683 0.92388 0
    outer loop
      vertex -4.37427 0.551111 5
      vertex -4.0125 0.700962 0
      vertex -4.37427 0.551111 0
    endloop
  endfacet
  facet normal -0.608762 -0.793353 0
    outer loop
      vertex -4.0125 3.29904 0
      vertex -3.70184 3.06066 5
      vertex -4.0125 3.29904 5
    endloop
  endfacet
  facet normal -0.608762 -0.793353 -0
    outer loop
      vertex -3.70184 3.06066 5
      vertex -4.0125 3.29904 0
      vertex -3.70184 3.06066 0
    endloop
  endfacet
  facet normal -0.92388 -0.382683 0
    outer loop
      vertex -3.31361 2.38823 0
      vertex -3.46346 2.75 5
      vertex -3.46346 2.75 0
    endloop
  endfacet
  facet normal -0.92388 -0.382683 0
    outer loop
      vertex -3.46346 2.75 5
      vertex -3.31361 2.38823 0
      vertex -3.31361 2.38823 5
    endloop
  endfacet
  facet normal -0.382683 -0.92388 0
    outer loop
      vertex -4.37427 3.44889 0
      vertex -4.0125 3.29904 5
      vertex -4.37427 3.44889 5
    endloop
  endfacet
  facet normal -0.382683 -0.92388 -0
    outer loop
      vertex -4.0125 3.29904 5
      vertex -4.37427 3.44889 0
      vertex -4.0125 3.29904 0
    endloop
  endfacet
  facet normal 0.793353 -0.608762 0
    outer loop
      vertex -6.06154 2.75 5
      vertex -5.82316 3.06066 0
      vertex -5.82316 3.06066 5
    endloop
  endfacet
  facet normal 0.793353 -0.608762 0
    outer loop
      vertex -5.82316 3.06066 0
      vertex -6.06154 2.75 5
      vertex -6.06154 2.75 0
    endloop
  endfacet
  facet normal 0.92388 -0.382683 0
    outer loop
      vertex -6.21139 2.38823 5
      vertex -6.06154 2.75 0
      vertex -6.06154 2.75 5
    endloop
  endfacet
  facet normal 0.92388 -0.382683 0
    outer loop
      vertex -6.06154 2.75 0
      vertex -6.21139 2.38823 5
      vertex -6.21139 2.38823 0
    endloop
  endfacet
  facet normal 0.382684 -0.923879 0
    outer loop
      vertex -5.5125 3.29904 0
      vertex -5.15073 3.44889 5
      vertex -5.5125 3.29904 5
    endloop
  endfacet
  facet normal 0.382684 -0.923879 0
    outer loop
      vertex -5.15073 3.44889 5
      vertex -5.5125 3.29904 0
      vertex -5.15073 3.44889 0
    endloop
  endfacet
  facet normal -0.793353 -0.608762 0
    outer loop
      vertex -3.46346 2.75 0
      vertex -3.70184 3.06066 5
      vertex -3.70184 3.06066 0
    endloop
  endfacet
  facet normal -0.793353 -0.608762 0
    outer loop
      vertex -3.70184 3.06066 5
      vertex -3.46346 2.75 0
      vertex -3.46346 2.75 5
    endloop
  endfacet
  facet normal -0.130526 -0.991445 0
    outer loop
      vertex -4.7625 3.5 0
      vertex -4.37427 3.44889 5
      vertex -4.7625 3.5 5
    endloop
  endfacet
  facet normal -0.130526 -0.991445 -0
    outer loop
      vertex -4.37427 3.44889 5
      vertex -4.7625 3.5 0
      vertex -4.37427 3.44889 0
    endloop
  endfacet
  facet normal 0.608761 -0.793353 0
    outer loop
      vertex -5.82316 3.06066 0
      vertex -5.5125 3.29904 5
      vertex -5.82316 3.06066 5
    endloop
  endfacet
  facet normal 0.608761 -0.793353 0
    outer loop
      vertex -5.5125 3.29904 5
      vertex -5.82316 3.06066 0
      vertex -5.5125 3.29904 0
    endloop
  endfacet
  facet normal -0.991445 0.130526 0
    outer loop
      vertex -3.31361 1.61177 0
      vertex -3.2625 2 5
      vertex -3.2625 2 0
    endloop
  endfacet
  facet normal -0.991445 0.130526 0
    outer loop
      vertex -3.2625 2 5
      vertex -3.31361 1.61177 0
      vertex -3.31361 1.61177 5
    endloop
  endfacet
  facet normal 0.793353 0.608762 0
    outer loop
      vertex -5.82316 0.93934 5
      vertex -6.06154 1.25 0
      vertex -6.06154 1.25 5
    endloop
  endfacet
  facet normal 0.793353 0.608762 0
    outer loop
      vertex -6.06154 1.25 0
      vertex -5.82316 0.93934 5
      vertex -5.82316 0.93934 0
    endloop
  endfacet
  facet normal -0.92388 0.382683 0
    outer loop
      vertex -3.46346 1.25 0
      vertex -3.31361 1.61177 5
      vertex -3.31361 1.61177 0
    endloop
  endfacet
  facet normal -0.92388 0.382683 0
    outer loop
      vertex -3.31361 1.61177 5
      vertex -3.46346 1.25 0
      vertex -3.46346 1.25 5
    endloop
  endfacet
  facet normal 0.382684 0.923879 -0
    outer loop
      vertex -5.15073 0.551111 0
      vertex -5.5125 0.700962 5
      vertex -5.15073 0.551111 5
    endloop
  endfacet
  facet normal 0.382684 0.923879 0
    outer loop
      vertex -5.5125 0.700962 5
      vertex -5.15073 0.551111 0
      vertex -5.5125 0.700962 0
    endloop
  endfacet
  facet normal -0.608762 0.793353 0
    outer loop
      vertex -3.70184 0.93934 0
      vertex -4.0125 0.700962 5
      vertex -3.70184 0.93934 5
    endloop
  endfacet
  facet normal -0.608762 0.793353 0
    outer loop
      vertex -4.0125 0.700962 5
      vertex -3.70184 0.93934 0
      vertex -4.0125 0.700962 0
    endloop
  endfacet
  facet normal 0.130526 0.991445 -0
    outer loop
      vertex -4.7625 0.5 0
      vertex -5.15073 0.551111 5
      vertex -4.7625 0.5 5
    endloop
  endfacet
  facet normal 0.130526 0.991445 0
    outer loop
      vertex -5.15073 0.551111 5
      vertex -4.7625 0.5 0
      vertex -5.15073 0.551111 0
    endloop
  endfacet
  facet normal 0.608761 0.793354 -0
    outer loop
      vertex -5.5125 0.700962 0
      vertex -5.82316 0.93934 5
      vertex -5.5125 0.700962 5
    endloop
  endfacet
  facet normal 0.608761 0.793354 0
    outer loop
      vertex -5.82316 0.93934 5
      vertex -5.5125 0.700962 0
      vertex -5.82316 0.93934 0
    endloop
  endfacet
  facet normal 0.92388 0.382683 0
    outer loop
      vertex -6.06154 1.25 5
      vertex -6.21139 1.61177 0
      vertex -6.21139 1.61177 5
    endloop
  endfacet
  facet normal 0.92388 0.382683 0
    outer loop
      vertex -6.21139 1.61177 0
      vertex -6.06154 1.25 5
      vertex -6.06154 1.25 0
    endloop
  endfacet
  facet normal 0.991445 0.130526 0
    outer loop
      vertex -6.21139 1.61177 5
      vertex -6.2625 2 0
      vertex -6.2625 2 5
    endloop
  endfacet
  facet normal 0.991445 0.130526 0
    outer loop
      vertex -6.2625 2 0
      vertex -6.21139 1.61177 5
      vertex -6.21139 1.61177 0
    endloop
  endfacet
  facet normal -0.793353 0.608762 0
    outer loop
      vertex -3.70184 0.93934 0
      vertex -3.46346 1.25 5
      vertex -3.46346 1.25 0
    endloop
  endfacet
  facet normal -0.793353 0.608762 0
    outer loop
      vertex -3.46346 1.25 5
      vertex -3.70184 0.93934 0
      vertex -3.70184 0.93934 5
    endloop
  endfacet
  facet normal 0.991445 -0.130526 0
    outer loop
      vertex 3.2625 2 5
      vertex 3.31361 2.38823 0
      vertex 3.31361 2.38823 5
    endloop
  endfacet
  facet normal 0.991445 -0.130526 0
    outer loop
      vertex 3.31361 2.38823 0
      vertex 3.2625 2 5
      vertex 3.2625 2 0
    endloop
  endfacet
  facet normal 0.991445 0.130526 0
    outer loop
      vertex 3.31361 1.61177 5
      vertex 3.2625 2 0
      vertex 3.2625 2 5
    endloop
  endfacet
  facet normal 0.991445 0.130526 0
    outer loop
      vertex 3.2625 2 0
      vertex 3.31361 1.61177 5
      vertex 3.31361 1.61177 0
    endloop
  endfacet
  facet normal -0.793353 -0.608762 0
    outer loop
      vertex 6.06154 2.75 0
      vertex 5.82316 3.06066 5
      vertex 5.82316 3.06066 0
    endloop
  endfacet
  facet normal -0.793353 -0.608762 0
    outer loop
      vertex 5.82316 3.06066 5
      vertex 6.06154 2.75 0
      vertex 6.06154 2.75 5
    endloop
  endfacet
  facet normal -0.92388 -0.382683 0
    outer loop
      vertex 6.21139 2.38823 0
      vertex 6.06154 2.75 5
      vertex 6.06154 2.75 0
    endloop
  endfacet
  facet normal -0.92388 -0.382683 0
    outer loop
      vertex 6.06154 2.75 5
      vertex 6.21139 2.38823 0
      vertex 6.21139 2.38823 5
    endloop
  endfacet
  facet normal 0.382683 -0.92388 0
    outer loop
      vertex 4.0125 3.29904 0
      vertex 4.37427 3.44889 5
      vertex 4.0125 3.29904 5
    endloop
  endfacet
  facet normal 0.382683 -0.92388 0
    outer loop
      vertex 4.37427 3.44889 5
      vertex 4.0125 3.29904 0
      vertex 4.37427 3.44889 0
    endloop
  endfacet
  facet normal 0.92388 -0.382683 0
    outer loop
      vertex 3.31361 2.38823 5
      vertex 3.46346 2.75 0
      vertex 3.46346 2.75 5
    endloop
  endfacet
  facet normal 0.92388 -0.382683 0
    outer loop
      vertex 3.46346 2.75 0
      vertex 3.31361 2.38823 5
      vertex 3.31361 2.38823 0
    endloop
  endfacet
  facet normal -0.991445 0.130526 0
    outer loop
      vertex 6.21139 1.61177 0
      vertex 6.2625 2 5
      vertex 6.2625 2 0
    endloop
  endfacet
  facet normal -0.991445 0.130526 0
    outer loop
      vertex 6.2625 2 5
      vertex 6.21139 1.61177 0
      vertex 6.21139 1.61177 5
    endloop
  endfacet
  facet normal -0.608761 -0.793353 0
    outer loop
      vertex 5.5125 3.29904 0
      vertex 5.82316 3.06066 5
      vertex 5.5125 3.29904 5
    endloop
  endfacet
  facet normal -0.608761 -0.793353 -0
    outer loop
      vertex 5.82316 3.06066 5
      vertex 5.5125 3.29904 0
      vertex 5.82316 3.06066 0
    endloop
  endfacet
  facet normal 0.130526 -0.991445 0
    outer loop
      vertex 4.37427 3.44889 0
      vertex 4.7625 3.5 5
      vertex 4.37427 3.44889 5
    endloop
  endfacet
  facet normal 0.130526 -0.991445 0
    outer loop
      vertex 4.7625 3.5 5
      vertex 4.37427 3.44889 0
      vertex 4.7625 3.5 0
    endloop
  endfacet
  facet normal -0.382684 -0.923879 0
    outer loop
      vertex 5.15073 3.44889 0
      vertex 5.5125 3.29904 5
      vertex 5.15073 3.44889 5
    endloop
  endfacet
  facet normal -0.382684 -0.923879 -0
    outer loop
      vertex 5.5125 3.29904 5
      vertex 5.15073 3.44889 0
      vertex 5.5125 3.29904 0
    endloop
  endfacet
  facet normal 0.608762 -0.793353 0
    outer loop
      vertex 3.70184 3.06066 0
      vertex 4.0125 3.29904 5
      vertex 3.70184 3.06066 5
    endloop
  endfacet
  facet normal 0.608762 -0.793353 0
    outer loop
      vertex 4.0125 3.29904 5
      vertex 3.70184 3.06066 0
      vertex 4.0125 3.29904 0
    endloop
  endfacet
  facet normal 0.793353 -0.608762 0
    outer loop
      vertex 3.46346 2.75 5
      vertex 3.70184 3.06066 0
      vertex 3.70184 3.06066 5
    endloop
  endfacet
  facet normal 0.793353 -0.608762 0
    outer loop
      vertex 3.70184 3.06066 0
      vertex 3.46346 2.75 5
      vertex 3.46346 2.75 0
    endloop
  endfacet
  facet normal -0.991445 -0.130526 0
    outer loop
      vertex 6.2625 2 0
      vertex 6.21139 2.38823 5
      vertex 6.21139 2.38823 0
    endloop
  endfacet
  facet normal -0.991445 -0.130526 0
    outer loop
      vertex 6.21139 2.38823 5
      vertex 6.2625 2 0
      vertex 6.2625 2 5
    endloop
  endfacet
  facet normal -0.382684 0.923879 0
    outer loop
      vertex 5.5125 0.700962 0
      vertex 5.15073 0.551111 5
      vertex 5.5125 0.700962 5
    endloop
  endfacet
  facet normal -0.382684 0.923879 0
    outer loop
      vertex 5.15073 0.551111 5
      vertex 5.5125 0.700962 0
      vertex 5.15073 0.551111 0
    endloop
  endfacet
  facet normal -0.608761 0.793354 0
    outer loop
      vertex 5.82316 0.93934 0
      vertex 5.5125 0.700962 5
      vertex 5.82316 0.93934 5
    endloop
  endfacet
  facet normal -0.608761 0.793354 0
    outer loop
      vertex 5.5125 0.700962 5
      vertex 5.82316 0.93934 0
      vertex 5.5125 0.700962 0
    endloop
  endfacet
  facet normal -0.130526 -0.991445 0
    outer loop
      vertex 4.7625 3.5 0
      vertex 5.15073 3.44889 5
      vertex 4.7625 3.5 5
    endloop
  endfacet
  facet normal -0.130526 -0.991445 -0
    outer loop
      vertex 5.15073 3.44889 5
      vertex 4.7625 3.5 0
      vertex 5.15073 3.44889 0
    endloop
  endfacet
  facet normal -0.92388 0.382683 0
    outer loop
      vertex 6.06154 1.25 0
      vertex 6.21139 1.61177 5
      vertex 6.21139 1.61177 0
    endloop
  endfacet
  facet normal -0.92388 0.382683 0
    outer loop
      vertex 6.21139 1.61177 5
      vertex 6.06154 1.25 0
      vertex 6.06154 1.25 5
    endloop
  endfacet
  facet normal 0.382683 0.92388 -0
    outer loop
      vertex 4.37427 0.551111 0
      vertex 4.0125 0.700962 5
      vertex 4.37427 0.551111 5
    endloop
  endfacet
  facet normal 0.382683 0.92388 0
    outer loop
      vertex 4.0125 0.700962 5
      vertex 4.37427 0.551111 0
      vertex 4.0125 0.700962 0
    endloop
  endfacet
  facet normal 0.130526 0.991445 -0
    outer loop
      vertex 4.7625 0.5 0
      vertex 4.37427 0.551111 5
      vertex 4.7625 0.5 5
    endloop
  endfacet
  facet normal 0.130526 0.991445 0
    outer loop
      vertex 4.37427 0.551111 5
      vertex 4.7625 0.5 0
      vertex 4.37427 0.551111 0
    endloop
  endfacet
  facet normal -0.130526 0.991445 0
    outer loop
      vertex 5.15073 0.551111 0
      vertex 4.7625 0.5 5
      vertex 5.15073 0.551111 5
    endloop
  endfacet
  facet normal -0.130526 0.991445 0
    outer loop
      vertex 4.7625 0.5 5
      vertex 5.15073 0.551111 0
      vertex 4.7625 0.5 0
    endloop
  endfacet
  facet normal 0.793353 0.608762 0
    outer loop
      vertex 3.70184 0.93934 5
      vertex 3.46346 1.25 0
      vertex 3.46346 1.25 5
    endloop
  endfacet
  facet normal 0.793353 0.608762 0
    outer loop
      vertex 3.46346 1.25 0
      vertex 3.70184 0.93934 5
      vertex 3.70184 0.93934 0
    endloop
  endfacet
  facet normal 0.92388 0.382683 0
    outer loop
      vertex 3.46346 1.25 5
      vertex 3.31361 1.61177 0
      vertex 3.31361 1.61177 5
    endloop
  endfacet
  facet normal 0.92388 0.382683 0
    outer loop
      vertex 3.31361 1.61177 0
      vertex 3.46346 1.25 5
      vertex 3.46346 1.25 0
    endloop
  endfacet
  facet normal 0.608762 0.793353 -0
    outer loop
      vertex 4.0125 0.700962 0
      vertex 3.70184 0.93934 5
      vertex 4.0125 0.700962 5
    endloop
  endfacet
  facet normal 0.608762 0.793353 0
    outer loop
      vertex 3.70184 0.93934 5
      vertex 4.0125 0.700962 0
      vertex 3.70184 0.93934 0
    endloop
  endfacet
  facet normal -0.793353 0.608762 0
    outer loop
      vertex 5.82316 0.93934 0
      vertex 6.06154 1.25 5
      vertex 6.06154 1.25 0
    endloop
  endfacet
  facet normal -0.793353 0.608762 0
    outer loop
      vertex 6.06154 1.25 5
      vertex 5.82316 0.93934 0
      vertex 5.82316 0.93934 5
    endloop
  endfacet
  facet normal -1 0 0
    outer loop
      vertex -10 5.5 0
      vertex -10 14.5 5
      vertex -10 14.5 0
    endloop
  endfacet
  facet normal -1 -0 0
    outer loop
      vertex -10 14.5 5
      vertex -10 5.5 0
      vertex -10 5.5 5
    endloop
  endfacet
  facet normal 0 0 1
    outer loop
      vertex 6.21139 11.6118 5
      vertex 10 14.5 5
      vertex 6.2625 12 5
    endloop
  endfacet
  facet normal 0 0 1
    outer loop
      vertex 10 14.5 5
      vertex 6.21139 12.3882 5
      vertex 6.2625 12 5
    endloop
  endfacet
  facet normal 0 0 1
    outer loop
      vertex 10 14.5 5
      vertex 6.06154 12.75 5
      vertex 6.21139 12.3882 5
    endloop
  endfacet
  facet normal 0 0 1
    outer loop
      vertex 10 14.5 5
      vertex 5.82316 13.0607 5
      vertex 6.06154 12.75 5
    endloop
  endfacet
  facet normal 0 0 1
    outer loop
      vertex 10 14.5 5
      vertex 5.5125 13.299 5
      vertex 5.82316 13.0607 5
    endloop
  endfacet
  facet normal 0 0 1
    outer loop
      vertex 10 14.5 5
      vertex 5.15073 13.4489 5
      vertex 5.5125 13.299 5
    endloop
  endfacet
  facet normal 0 0 1
    outer loop
      vertex 10 14.5 5
      vertex 4.7625 13.5 5
      vertex 5.15073 13.4489 5
    endloop
  endfacet
  facet normal 0 0 1
    outer loop
      vertex -4.7625 13.5 5
      vertex 4.7625 13.5 5
      vertex 10 14.5 5
    endloop
  endfacet
  facet normal 0 0 1
    outer loop
      vertex 3.31361 12.3882 5
      vertex -3.2625 12 5
      vertex 3.2625 12 5
    endloop
  endfacet
  facet normal 0 0 1
    outer loop
      vertex -3.31361 12.3882 5
      vertex 3.31361 12.3882 5
      vertex 3.46346 12.75 5
    endloop
  endfacet
  facet normal 0 0 1
    outer loop
      vertex -3.46346 12.75 5
      vertex 3.46346 12.75 5
      vertex 3.70184 13.0607 5
    endloop
  endfacet
  facet normal 0 0 1
    outer loop
      vertex -3.70184 13.0607 5
      vertex 3.70184 13.0607 5
      vertex 4.0125 13.299 5
    endloop
  endfacet
  facet normal 0 0 1
    outer loop
      vertex -4.0125 13.299 5
      vertex 4.0125 13.299 5
      vertex 4.37427 13.4489 5
    endloop
  endfacet
  facet normal 0 0 1
    outer loop
      vertex 3.31361 12.3882 5
      vertex -3.31361 12.3882 5
      vertex -3.2625 12 5
    endloop
  endfacet
  facet normal 0 0 1
    outer loop
      vertex 4.7625 13.5 5
      vertex -4.7625 13.5 5
      vertex 4.37427 13.4489 5
    endloop
  endfacet
  facet normal 0 0 1
    outer loop
      vertex 3.46346 12.75 5
      vertex -3.46346 12.75 5
      vertex -3.31361 12.3882 5
    endloop
  endfacet
  facet normal 0 0 1
    outer loop
      vertex 3.70184 13.0607 5
      vertex -3.70184 13.0607 5
      vertex -3.46346 12.75 5
    endloop
  endfacet
  facet normal 0 0 1
    outer loop
      vertex 4.0125 13.299 5
      vertex -4.0125 13.299 5
      vertex -3.70184 13.0607 5
    endloop
  endfacet
  facet normal 0 0 1
    outer loop
      vertex 4.37427 13.4489 5
      vertex -4.37427 13.4489 5
      vertex -4.0125 13.299 5
    endloop
  endfacet
  facet normal 0 0 1
    outer loop
      vertex 4.37427 13.4489 5
      vertex -4.7625 13.5 5
      vertex -4.37427 13.4489 5
    endloop
  endfacet
  facet normal 0 0 1
    outer loop
      vertex -6.21139 12.3882 5
      vertex -10 14.5 5
      vertex -6.2625 12 5
    endloop
  endfacet
  facet normal 0 0 1
    outer loop
      vertex -6.06154 12.75 5
      vertex -10 14.5 5
      vertex -6.21139 12.3882 5
    endloop
  endfacet
  facet normal 0 0 1
    outer loop
      vertex -5.82316 13.0607 5
      vertex -10 14.5 5
      vertex -6.06154 12.75 5
    endloop
  endfacet
  facet normal 0 0 1
    outer loop
      vertex -5.5125 13.299 5
      vertex -10 14.5 5
      vertex -5.82316 13.0607 5
    endloop
  endfacet
  facet normal 0 0 1
    outer loop
      vertex -5.15073 13.4489 5
      vertex -10 14.5 5
      vertex -5.5125 13.299 5
    endloop
  endfacet
  facet normal 0 0 1
    outer loop
      vertex -4.7625 13.5 5
      vertex -10 14.5 5
      vertex -5.15073 13.4489 5
    endloop
  endfacet
  facet normal -0 0 1
    outer loop
      vertex -10 14.5 5
      vertex -4.7625 13.5 5
      vertex 10 14.5 5
    endloop
  endfacet
  facet normal 0 0 1
    outer loop
      vertex 10 14.5 5
      vertex 6.21139 11.6118 5
      vertex 10 5.5 5
    endloop
  endfacet
  facet normal -0 0 1
    outer loop
      vertex 6.06154 11.25 5
      vertex 10 5.5 5
      vertex 6.21139 11.6118 5
    endloop
  endfacet
  facet normal -0 0 1
    outer loop
      vertex 5.82316 10.9393 5
      vertex 10 5.5 5
      vertex 6.06154 11.25 5
    endloop
  endfacet
  facet normal -0 0 1
    outer loop
      vertex 5.5125 10.701 5
      vertex 10 5.5 5
      vertex 5.82316 10.9393 5
    endloop
  endfacet
  facet normal -0 0 1
    outer loop
      vertex 5.15073 10.5511 5
      vertex 10 5.5 5
      vertex 5.5125 10.701 5
    endloop
  endfacet
  facet normal -0 0 1
    outer loop
      vertex 4.7625 10.5 5
      vertex 10 5.5 5
      vertex 5.15073 10.5511 5
    endloop
  endfacet
  facet normal 0 0 1
    outer loop
      vertex 4.37427 10.5511 5
      vertex 10 5.5 5
      vertex 4.7625 10.5 5
    endloop
  endfacet
  facet normal 0 0 1
    outer loop
      vertex -4.37427 10.5511 5
      vertex 4.37427 10.5511 5
      vertex 4.0125 10.701 5
    endloop
  endfacet
  facet normal 0 0 1
    outer loop
      vertex -4.0125 10.701 5
      vertex 4.0125 10.701 5
      vertex 3.70184 10.9393 5
    endloop
  endfacet
  facet normal -0 0 1
    outer loop
      vertex -3.2625 12 5
      vertex 3.31361 11.6118 5
      vertex 3.2625 12 5
    endloop
  endfacet
  facet normal 0 0 1
    outer loop
      vertex -3.31361 11.6118 5
      vertex 3.31361 11.6118 5
      vertex -3.2625 12 5
    endloop
  endfacet
  facet normal 0 0 1
    outer loop
      vertex 3.31361 11.6118 5
      vertex -3.31361 11.6118 5
      vertex 3.46346 11.25 5
    endloop
  endfacet
  facet normal 0 0 1
    outer loop
      vertex -3.46346 11.25 5
      vertex 3.46346 11.25 5
      vertex -3.31361 11.6118 5
    endloop
  endfacet
  facet normal 0 0 1
    outer loop
      vertex 3.46346 11.25 5
      vertex -3.46346 11.25 5
      vertex 3.70184 10.9393 5
    endloop
  endfacet
  facet normal 0 0 1
    outer loop
      vertex -3.70184 10.9393 5
      vertex 3.70184 10.9393 5
      vertex -3.46346 11.25 5
    endloop
  endfacet
  facet normal 0 0 1
    outer loop
      vertex -4.0125 10.701 5
      vertex 3.70184 10.9393 5
      vertex -3.70184 10.9393 5
    endloop
  endfacet
  facet normal 0 0 1
    outer loop
      vertex -4.37427 10.5511 5
      vertex 4.0125 10.701 5
      vertex -4.0125 10.701 5
    endloop
  endfacet
  facet normal 0 0 1
    outer loop
      vertex 4.37427 10.5511 5
      vertex -4.37427 10.5511 5
      vertex 10 5.5 5
    endloop
  endfacet
  facet normal 0 0 1
    outer loop
      vertex -10 5.5 5
      vertex -4.37427 10.5511 5
      vertex -4.7625 10.5 5
    endloop
  endfacet
  facet normal 0 0 1
    outer loop
      vertex -10 5.5 5
      vertex -4.7625 10.5 5
      vertex -5.15073 10.5511 5
    endloop
  endfacet
  facet normal 0 0 1
    outer loop
      vertex -10 14.5 5
      vertex -6.21139 11.6118 5
      vertex -6.2625 12 5
    endloop
  endfacet
  facet normal 0 0 1
    outer loop
      vertex -10 5.5 5
      vertex -6.21139 11.6118 5
      vertex -10 14.5 5
    endloop
  endfacet
  facet normal 0 0 1
    outer loop
      vertex -6.21139 11.6118 5
      vertex -10 5.5 5
      vertex -6.06154 11.25 5
    endloop
  endfacet
  facet normal 0 0 1
    outer loop
      vertex -4.37427 10.5511 5
      vertex -10 5.5 5
      vertex 10 5.5 5
    endloop
  endfacet
  facet normal 0 0 1
    outer loop
      vertex -5.5125 10.701 5
      vertex -10 5.5 5
      vertex -5.15073 10.5511 5
    endloop
  endfacet
  facet normal 0 0 1
    outer loop
      vertex -5.82316 10.9393 5
      vertex -10 5.5 5
      vertex -5.5125 10.701 5
    endloop
  endfacet
  facet normal 0 0 1
    outer loop
      vertex -6.06154 11.25 5
      vertex -10 5.5 5
      vertex -5.82316 10.9393 5
    endloop
  endfacet
  facet normal 1 -0 0
    outer loop
      vertex 10 5.5 5
      vertex 10 14.5 0
      vertex 10 14.5 5
    endloop
  endfacet
  facet normal 1 0 0
    outer loop
      vertex 10 14.5 0
      vertex 10 5.5 5
      vertex 10 5.5 0
    endloop
  endfacet
  facet normal 0 1 -0
    outer loop
      vertex 10 14.5 0
      vertex -10 14.5 5
      vertex 10 14.5 5
    endloop
  endfacet
  facet normal 0 1 0
    outer loop
      vertex -10 14.5 5
      vertex 10 14.5 0
      vertex -10 14.5 0
    endloop
  endfacet
  facet normal 0 0 -1
    outer loop
      vertex 6.21139 11.6118 0
      vertex 10 14.5 0
      vertex 10 5.5 0
    endloop
  endfacet
  facet normal 0 0 -1
    outer loop
      vertex 10 14.5 0
      vertex 6.21139 11.6118 0
      vertex 6.2625 12 0
    endloop
  endfacet
  facet normal 0 0 -1
    outer loop
      vertex 10 5.5 0
      vertex 6.06154 11.25 0
      vertex 6.21139 11.6118 0
    endloop
  endfacet
  facet normal 0 0 -1
    outer loop
      vertex 10 5.5 0
      vertex 5.82316 10.9393 0
      vertex 6.06154 11.25 0
    endloop
  endfacet
  facet normal 0 0 -1
    outer loop
      vertex 10 5.5 0
      vertex 5.5125 10.701 0
      vertex 5.82316 10.9393 0
    endloop
  endfacet
  facet normal 0 0 -1
    outer loop
      vertex 10 5.5 0
      vertex 5.15073 10.5511 0
      vertex 5.5125 10.701 0
    endloop
  endfacet
  facet normal 0 0 -1
    outer loop
      vertex 10 5.5 0
      vertex 4.7625 10.5 0
      vertex 5.15073 10.5511 0
    endloop
  endfacet
  facet normal 0 0 -1
    outer loop
      vertex 10 5.5 0
      vertex 4.37427 10.5511 0
      vertex 4.7625 10.5 0
    endloop
  endfacet
  facet normal 0 0 -1
    outer loop
      vertex -4.37427 10.5511 0
      vertex 4.37427 10.5511 0
      vertex 10 5.5 0
    endloop
  endfacet
  facet normal 0 0 -1
    outer loop
      vertex 4.37427 10.5511 0
      vertex -4.37427 10.5511 0
      vertex 4.0125 10.701 0
    endloop
  endfacet
  facet normal 0 0 -1
    outer loop
      vertex 3.31361 11.6118 0
      vertex -3.2625 12 0
      vertex 3.2625 12 0
    endloop
  endfacet
  facet normal 0 0 -1
    outer loop
      vertex -3.31361 11.6118 0
      vertex 3.31361 11.6118 0
      vertex 3.46346 11.25 0
    endloop
  endfacet
  facet normal 0 0 -1
    outer loop
      vertex -3.46346 11.25 0
      vertex 3.46346 11.25 0
      vertex 3.70184 10.9393 0
    endloop
  endfacet
  facet normal 0 0 -1
    outer loop
      vertex 4.0125 10.701 0
      vertex -4.0125 10.701 0
      vertex 3.70184 10.9393 0
    endloop
  endfacet
  facet normal 0 0 -1
    outer loop
      vertex 3.31361 11.6118 0
      vertex -3.31361 11.6118 0
      vertex -3.2625 12 0
    endloop
  endfacet
  facet normal 0 0 -1
    outer loop
      vertex 3.46346 11.25 0
      vertex -3.46346 11.25 0
      vertex -3.31361 11.6118 0
    endloop
  endfacet
  facet normal 0 0 -1
    outer loop
      vertex 3.70184 10.9393 0
      vertex -3.70184 10.9393 0
      vertex -3.46346 11.25 0
    endloop
  endfacet
  facet normal -0 0 -1
    outer loop
      vertex 3.70184 10.9393 0
      vertex -4.0125 10.701 0
      vertex -3.70184 10.9393 0
    endloop
  endfacet
  facet normal -0 0 -1
    outer loop
      vertex 4.0125 10.701 0
      vertex -4.37427 10.5511 0
      vertex -4.0125 10.701 0
    endloop
  endfacet
  facet normal 0 0 -1
    outer loop
      vertex -10 5.5 0
      vertex -4.37427 10.5511 0
      vertex 10 5.5 0
    endloop
  endfacet
  facet normal 0 0 -1
    outer loop
      vertex -4.37427 10.5511 0
      vertex -10 5.5 0
      vertex -4.7625 10.5 0
    endloop
  endfacet
  facet normal 0 0 -1
    outer loop
      vertex -10 14.5 0
      vertex -6.21139 11.6118 0
      vertex -10 5.5 0
    endloop
  endfacet
  facet normal -0 0 -1
    outer loop
      vertex -6.06154 11.25 0
      vertex -10 5.5 0
      vertex -6.21139 11.6118 0
    endloop
  endfacet
  facet normal -0 0 -1
    outer loop
      vertex -5.82316 10.9393 0
      vertex -10 5.5 0
      vertex -6.06154 11.25 0
    endloop
  endfacet
  facet normal -0 0 -1
    outer loop
      vertex -5.5125 10.701 0
      vertex -10 5.5 0
      vertex -5.82316 10.9393 0
    endloop
  endfacet
  facet normal -0 0 -1
    outer loop
      vertex -5.15073 10.5511 0
      vertex -10 5.5 0
      vertex -5.5125 10.701 0
    endloop
  endfacet
  facet normal -0 0 -1
    outer loop
      vertex -4.7625 10.5 0
      vertex -10 5.5 0
      vertex -5.15073 10.5511 0
    endloop
  endfacet
  facet normal 0 0 -1
    outer loop
      vertex 6.21139 12.3882 0
      vertex 10 14.5 0
      vertex 6.2625 12 0
    endloop
  endfacet
  facet normal 0 0 -1
    outer loop
      vertex 6.06154 12.75 0
      vertex 10 14.5 0
      vertex 6.21139 12.3882 0
    endloop
  endfacet
  facet normal 0 0 -1
    outer loop
      vertex 5.82316 13.0607 0
      vertex 10 14.5 0
      vertex 6.06154 12.75 0
    endloop
  endfacet
  facet normal 0 0 -1
    outer loop
      vertex 5.5125 13.299 0
      vertex 10 14.5 0
      vertex 5.82316 13.0607 0
    endloop
  endfacet
  facet normal 0 0 -1
    outer loop
      vertex 5.15073 13.4489 0
      vertex 10 14.5 0
      vertex 5.5125 13.299 0
    endloop
  endfacet
  facet normal 0 0 -1
    outer loop
      vertex 4.7625 13.5 0
      vertex 10 14.5 0
      vertex 5.15073 13.4489 0
    endloop
  endfacet
  facet normal 0 0 -1
    outer loop
      vertex -4.7625 13.5 0
      vertex 4.7625 13.5 0
      vertex 4.37427 13.4489 0
    endloop
  endfacet
  facet normal 0 0 -1
    outer loop
      vertex -3.2625 12 0
      vertex 3.31361 12.3882 0
      vertex 3.2625 12 0
    endloop
  endfacet
  facet normal 0 0 -1
    outer loop
      vertex -3.31361 12.3882 0
      vertex 3.31361 12.3882 0
      vertex -3.2625 12 0
    endloop
  endfacet
  facet normal 0 0 -1
    outer loop
      vertex 3.31361 12.3882 0
      vertex -3.31361 12.3882 0
      vertex 3.46346 12.75 0
    endloop
  endfacet
  facet normal 0 0 -1
    outer loop
      vertex -3.46346 12.75 0
      vertex 3.46346 12.75 0
      vertex -3.31361 12.3882 0
    endloop
  endfacet
  facet normal 0 0 -1
    outer loop
      vertex 3.46346 12.75 0
      vertex -3.46346 12.75 0
      vertex 3.70184 13.0607 0
    endloop
  endfacet
  facet normal 0 0 -1
    outer loop
      vertex -3.70184 13.0607 0
      vertex 3.70184 13.0607 0
      vertex -3.46346 12.75 0
    endloop
  endfacet
  facet normal 0 0 -1
    outer loop
      vertex 3.70184 13.0607 0
      vertex -3.70184 13.0607 0
      vertex 4.0125 13.299 0
    endloop
  endfacet
  facet normal 0 0 -1
    outer loop
      vertex -4.0125 13.299 0
      vertex 4.0125 13.299 0
      vertex -3.70184 13.0607 0
    endloop
  endfacet
  facet normal 0 0 -1
    outer loop
      vertex 4.0125 13.299 0
      vertex -4.0125 13.299 0
      vertex 4.37427 13.4489 0
    endloop
  endfacet
  facet normal 0 0 -1
    outer loop
      vertex -4.37427 13.4489 0
      vertex 4.37427 13.4489 0
      vertex -4.0125 13.299 0
    endloop
  endfacet
  facet normal 0 0 -1
    outer loop
      vertex -4.7625 13.5 0
      vertex 4.37427 13.4489 0
      vertex -4.37427 13.4489 0
    endloop
  endfacet
  facet normal 0 0 -1
    outer loop
      vertex 4.7625 13.5 0
      vertex -4.7625 13.5 0
      vertex 10 14.5 0
    endloop
  endfacet
  facet normal 0 0 -1
    outer loop
      vertex -6.21139 11.6118 0
      vertex -10 14.5 0
      vertex -6.2625 12 0
    endloop
  endfacet
  facet normal 0 0 -1
    outer loop
      vertex -6.2625 12 0
      vertex -10 14.5 0
      vertex -6.21139 12.3882 0
    endloop
  endfacet
  facet normal 0 0 -1
    outer loop
      vertex -4.7625 13.5 0
      vertex -10 14.5 0
      vertex 10 14.5 0
    endloop
  endfacet
  facet normal 0 0 -1
    outer loop
      vertex -5.15073 13.4489 0
      vertex -10 14.5 0
      vertex -4.7625 13.5 0
    endloop
  endfacet
  facet normal 0 0 -1
    outer loop
      vertex -5.5125 13.299 0
      vertex -10 14.5 0
      vertex -5.15073 13.4489 0
    endloop
  endfacet
  facet normal 0 0 -1
    outer loop
      vertex -5.82316 13.0607 0
      vertex -10 14.5 0
      vertex -5.5125 13.299 0
    endloop
  endfacet
  facet normal 0 0 -1
    outer loop
      vertex -6.06154 12.75 0
      vertex -10 14.5 0
      vertex -5.82316 13.0607 0
    endloop
  endfacet
  facet normal 0 0 -1
    outer loop
      vertex -6.21139 12.3882 0
      vertex -10 14.5 0
      vertex -6.06154 12.75 0
    endloop
  endfacet
  facet normal 0 -1 0
    outer loop
      vertex -10 5.5 0
      vertex 10 5.5 5
      vertex -10 5.5 5
    endloop
  endfacet
  facet normal 0 -1 -0
    outer loop
      vertex 10 5.5 5
      vertex -10 5.5 0
      vertex 10 5.5 0
    endloop
  endfacet
  facet normal -0.991445 -0.130526 0
    outer loop
      vertex -3.2625 12 0
      vertex -3.31361 12.3882 5
      vertex -3.31361 12.3882 0
    endloop
  endfacet
  facet normal -0.991445 -0.130526 0
    outer loop
      vertex -3.31361 12.3882 5
      vertex -3.2625 12 0
      vertex -3.2625 12 5
    endloop
  endfacet
  facet normal 0.991445 -0.130526 0
    outer loop
      vertex -6.2625 12 5
      vertex -6.21139 12.3882 0
      vertex -6.21139 12.3882 5
    endloop
  endfacet
  facet normal 0.991445 -0.130526 0
    outer loop
      vertex -6.21139 12.3882 0
      vertex -6.2625 12 5
      vertex -6.2625 12 0
    endloop
  endfacet
  facet normal 0.130526 -0.991445 0
    outer loop
      vertex -5.15073 13.4489 0
      vertex -4.7625 13.5 5
      vertex -5.15073 13.4489 5
    endloop
  endfacet
  facet normal 0.130526 -0.991445 0
    outer loop
      vertex -4.7625 13.5 5
      vertex -5.15073 13.4489 0
      vertex -4.7625 13.5 0
    endloop
  endfacet
  facet normal -0.130526 0.991445 0
    outer loop
      vertex -4.37427 10.5511 0
      vertex -4.7625 10.5 5
      vertex -4.37427 10.5511 5
    endloop
  endfacet
  facet normal -0.130526 0.991445 0
    outer loop
      vertex -4.7625 10.5 5
      vertex -4.37427 10.5511 0
      vertex -4.7625 10.5 0
    endloop
  endfacet
  facet normal -0.382684 0.923879 0
    outer loop
      vertex -4.0125 10.701 0
      vertex -4.37427 10.5511 5
      vertex -4.0125 10.701 5
    endloop
  endfacet
  facet normal -0.382684 0.923879 0
    outer loop
      vertex -4.37427 10.5511 5
      vertex -4.0125 10.701 0
      vertex -4.37427 10.5511 0
    endloop
  endfacet
  facet normal -0.608761 -0.793354 0
    outer loop
      vertex -4.0125 13.299 0
      vertex -3.70184 13.0607 5
      vertex -4.0125 13.299 5
    endloop
  endfacet
  facet normal -0.608761 -0.793354 -0
    outer loop
      vertex -3.70184 13.0607 5
      vertex -4.0125 13.299 0
      vertex -3.70184 13.0607 0
    endloop
  endfacet
  facet normal -0.92388 -0.382683 0
    outer loop
      vertex -3.31361 12.3882 0
      vertex -3.46346 12.75 5
      vertex -3.46346 12.75 0
    endloop
  endfacet
  facet normal -0.92388 -0.382683 0
    outer loop
      vertex -3.46346 12.75 5
      vertex -3.31361 12.3882 0
      vertex -3.31361 12.3882 5
    endloop
  endfacet
  facet normal -0.382684 -0.923879 0
    outer loop
      vertex -4.37427 13.4489 0
      vertex -4.0125 13.299 5
      vertex -4.37427 13.4489 5
    endloop
  endfacet
  facet normal -0.382684 -0.923879 -0
    outer loop
      vertex -4.0125 13.299 5
      vertex -4.37427 13.4489 0
      vertex -4.0125 13.299 0
    endloop
  endfacet
  facet normal 0.793353 -0.608761 0
    outer loop
      vertex -6.06154 12.75 5
      vertex -5.82316 13.0607 0
      vertex -5.82316 13.0607 5
    endloop
  endfacet
  facet normal 0.793353 -0.608761 0
    outer loop
      vertex -5.82316 13.0607 0
      vertex -6.06154 12.75 5
      vertex -6.06154 12.75 0
    endloop
  endfacet
  facet normal 0.92388 -0.382683 0
    outer loop
      vertex -6.21139 12.3882 5
      vertex -6.06154 12.75 0
      vertex -6.06154 12.75 5
    endloop
  endfacet
  facet normal 0.92388 -0.382683 0
    outer loop
      vertex -6.06154 12.75 0
      vertex -6.21139 12.3882 5
      vertex -6.21139 12.3882 0
    endloop
  endfacet
  facet normal 0.382684 -0.923879 0
    outer loop
      vertex -5.5125 13.299 0
      vertex -5.15073 13.4489 5
      vertex -5.5125 13.299 5
    endloop
  endfacet
  facet normal 0.382684 -0.923879 0
    outer loop
      vertex -5.15073 13.4489 5
      vertex -5.5125 13.299 0
      vertex -5.15073 13.4489 0
    endloop
  endfacet
  facet normal -0.793353 -0.608761 0
    outer loop
      vertex -3.46346 12.75 0
      vertex -3.70184 13.0607 5
      vertex -3.70184 13.0607 0
    endloop
  endfacet
  facet normal -0.793353 -0.608761 0
    outer loop
      vertex -3.70184 13.0607 5
      vertex -3.46346 12.75 0
      vertex -3.46346 12.75 5
    endloop
  endfacet
  facet normal -0.130526 -0.991445 0
    outer loop
      vertex -4.7625 13.5 0
      vertex -4.37427 13.4489 5
      vertex -4.7625 13.5 5
    endloop
  endfacet
  facet normal -0.130526 -0.991445 -0
    outer loop
      vertex -4.37427 13.4489 5
      vertex -4.7625 13.5 0
      vertex -4.37427 13.4489 0
    endloop
  endfacet
  facet normal 0.608761 -0.793354 0
    outer loop
      vertex -5.82316 13.0607 0
      vertex -5.5125 13.299 5
      vertex -5.82316 13.0607 5
    endloop
  endfacet
  facet normal 0.608761 -0.793354 0
    outer loop
      vertex -5.5125 13.299 5
      vertex -5.82316 13.0607 0
      vertex -5.5125 13.299 0
    endloop
  endfacet
  facet normal -0.991445 0.130526 0
    outer loop
      vertex -3.31361 11.6118 0
      vertex -3.2625 12 5
      vertex -3.2625 12 0
    endloop
  endfacet
  facet normal -0.991445 0.130526 0
    outer loop
      vertex -3.2625 12 5
      vertex -3.31361 11.6118 0
      vertex -3.31361 11.6118 5
    endloop
  endfacet
  facet normal 0.793353 0.608761 0
    outer loop
      vertex -5.82316 10.9393 5
      vertex -6.06154 11.25 0
      vertex -6.06154 11.25 5
    endloop
  endfacet
  facet normal 0.793353 0.608761 0
    outer loop
      vertex -6.06154 11.25 0
      vertex -5.82316 10.9393 5
      vertex -5.82316 10.9393 0
    endloop
  endfacet
  facet normal -0.92388 0.382683 0
    outer loop
      vertex -3.46346 11.25 0
      vertex -3.31361 11.6118 5
      vertex -3.31361 11.6118 0
    endloop
  endfacet
  facet normal -0.92388 0.382683 0
    outer loop
      vertex -3.31361 11.6118 5
      vertex -3.46346 11.25 0
      vertex -3.46346 11.25 5
    endloop
  endfacet
  facet normal 0.382684 0.923879 -0
    outer loop
      vertex -5.15073 10.5511 0
      vertex -5.5125 10.701 5
      vertex -5.15073 10.5511 5
    endloop
  endfacet
  facet normal 0.382684 0.923879 0
    outer loop
      vertex -5.5125 10.701 5
      vertex -5.15073 10.5511 0
      vertex -5.5125 10.701 0
    endloop
  endfacet
  facet normal -0.608761 0.793354 0
    outer loop
      vertex -3.70184 10.9393 0
      vertex -4.0125 10.701 5
      vertex -3.70184 10.9393 5
    endloop
  endfacet
  facet normal -0.608761 0.793354 0
    outer loop
      vertex -4.0125 10.701 5
      vertex -3.70184 10.9393 0
      vertex -4.0125 10.701 0
    endloop
  endfacet
  facet normal 0.130526 0.991445 -0
    outer loop
      vertex -4.7625 10.5 0
      vertex -5.15073 10.5511 5
      vertex -4.7625 10.5 5
    endloop
  endfacet
  facet normal 0.130526 0.991445 0
    outer loop
      vertex -5.15073 10.5511 5
      vertex -4.7625 10.5 0
      vertex -5.15073 10.5511 0
    endloop
  endfacet
  facet normal 0.608761 0.793354 -0
    outer loop
      vertex -5.5125 10.701 0
      vertex -5.82316 10.9393 5
      vertex -5.5125 10.701 5
    endloop
  endfacet
  facet normal 0.608761 0.793354 0
    outer loop
      vertex -5.82316 10.9393 5
      vertex -5.5125 10.701 0
      vertex -5.82316 10.9393 0
    endloop
  endfacet
  facet normal 0.92388 0.382683 0
    outer loop
      vertex -6.06154 11.25 5
      vertex -6.21139 11.6118 0
      vertex -6.21139 11.6118 5
    endloop
  endfacet
  facet normal 0.92388 0.382683 0
    outer loop
      vertex -6.21139 11.6118 0
      vertex -6.06154 11.25 5
      vertex -6.06154 11.25 0
    endloop
  endfacet
  facet normal 0.991445 0.130526 0
    outer loop
      vertex -6.21139 11.6118 5
      vertex -6.2625 12 0
      vertex -6.2625 12 5
    endloop
  endfacet
  facet normal 0.991445 0.130526 0
    outer loop
      vertex -6.2625 12 0
      vertex -6.21139 11.6118 5
      vertex -6.21139 11.6118 0
    endloop
  endfacet
  facet normal -0.793353 0.608761 0
    outer loop
      vertex -3.70184 10.9393 0
      vertex -3.46346 11.25 5
      vertex -3.46346 11.25 0
    endloop
  endfacet
  facet normal -0.793353 0.608761 0
    outer loop
      vertex -3.46346 11.25 5
      vertex -3.70184 10.9393 0
      vertex -3.70184 10.9393 5
    endloop
  endfacet
  facet normal 0.991445 -0.130526 0
    outer loop
      vertex 3.2625 12 5
      vertex 3.31361 12.3882 0
      vertex 3.31361 12.3882 5
    endloop
  endfacet
  facet normal 0.991445 -0.130526 0
    outer loop
      vertex 3.31361 12.3882 0
      vertex 3.2625 12 5
      vertex 3.2625 12 0
    endloop
  endfacet
  facet normal 0.991445 0.130526 0
    outer loop
      vertex 3.31361 11.6118 5
      vertex 3.2625 12 0
      vertex 3.2625 12 5
    endloop
  endfacet
  facet normal 0.991445 0.130526 0
    outer loop
      vertex 3.2625 12 0
      vertex 3.31361 11.6118 5
      vertex 3.31361 11.6118 0
    endloop
  endfacet
  facet normal -0.793353 -0.608761 0
    outer loop
      vertex 6.06154 12.75 0
      vertex 5.82316 13.0607 5
      vertex 5.82316 13.0607 0
    endloop
  endfacet
  facet normal -0.793353 -0.608761 0
    outer loop
      vertex 5.82316 13.0607 5
      vertex 6.06154 12.75 0
      vertex 6.06154 12.75 5
    endloop
  endfacet
  facet normal -0.92388 -0.382683 0
    outer loop
      vertex 6.21139 12.3882 0
      vertex 6.06154 12.75 5
      vertex 6.06154 12.75 0
    endloop
  endfacet
  facet normal -0.92388 -0.382683 0
    outer loop
      vertex 6.06154 12.75 5
      vertex 6.21139 12.3882 0
      vertex 6.21139 12.3882 5
    endloop
  endfacet
  facet normal 0.382684 -0.923879 0
    outer loop
      vertex 4.0125 13.299 0
      vertex 4.37427 13.4489 5
      vertex 4.0125 13.299 5
    endloop
  endfacet
  facet normal 0.382684 -0.923879 0
    outer loop
      vertex 4.37427 13.4489 5
      vertex 4.0125 13.299 0
      vertex 4.37427 13.4489 0
    endloop
  endfacet
  facet normal 0.92388 -0.382683 0
    outer loop
      vertex 3.31361 12.3882 5
      vertex 3.46346 12.75 0
      vertex 3.46346 12.75 5
    endloop
  endfacet
  facet normal 0.92388 -0.382683 0
    outer loop
      vertex 3.46346 12.75 0
      vertex 3.31361 12.3882 5
      vertex 3.31361 12.3882 0
    endloop
  endfacet
  facet normal -0.991445 0.130526 0
    outer loop
      vertex 6.21139 11.6118 0
      vertex 6.2625 12 5
      vertex 6.2625 12 0
    endloop
  endfacet
  facet normal -0.991445 0.130526 0
    outer loop
      vertex 6.2625 12 5
      vertex 6.21139 11.6118 0
      vertex 6.21139 11.6118 5
    endloop
  endfacet
  facet normal -0.608761 -0.793354 0
    outer loop
      vertex 5.5125 13.299 0
      vertex 5.82316 13.0607 5
      vertex 5.5125 13.299 5
    endloop
  endfacet
  facet normal -0.608761 -0.793354 -0
    outer loop
      vertex 5.82316 13.0607 5
      vertex 5.5125 13.299 0
      vertex 5.82316 13.0607 0
    endloop
  endfacet
  facet normal 0.130526 -0.991445 0
    outer loop
      vertex 4.37427 13.4489 0
      vertex 4.7625 13.5 5
      vertex 4.37427 13.4489 5
    endloop
  endfacet
  facet normal 0.130526 -0.991445 0
    outer loop
      vertex 4.7625 13.5 5
      vertex 4.37427 13.4489 0
      vertex 4.7625 13.5 0
    endloop
  endfacet
  facet normal -0.382684 -0.923879 0
    outer loop
      vertex 5.15073 13.4489 0
      vertex 5.5125 13.299 5
      vertex 5.15073 13.4489 5
    endloop
  endfacet
  facet normal -0.382684 -0.923879 -0
    outer loop
      vertex 5.5125 13.299 5
      vertex 5.15073 13.4489 0
      vertex 5.5125 13.299 0
    endloop
  endfacet
  facet normal 0.608761 -0.793354 0
    outer loop
      vertex 3.70184 13.0607 0
      vertex 4.0125 13.299 5
      vertex 3.70184 13.0607 5
    endloop
  endfacet
  facet normal 0.608761 -0.793354 0
    outer loop
      vertex 4.0125 13.299 5
      vertex 3.70184 13.0607 0
      vertex 4.0125 13.299 0
    endloop
  endfacet
  facet normal 0.793353 -0.608761 0
    outer loop
      vertex 3.46346 12.75 5
      vertex 3.70184 13.0607 0
      vertex 3.70184 13.0607 5
    endloop
  endfacet
  facet normal 0.793353 -0.608761 0
    outer loop
      vertex 3.70184 13.0607 0
      vertex 3.46346 12.75 5
      vertex 3.46346 12.75 0
    endloop
  endfacet
  facet normal -0.991445 -0.130526 0
    outer loop
      vertex 6.2625 12 0
      vertex 6.21139 12.3882 5
      vertex 6.21139 12.3882 0
    endloop
  endfacet
  facet normal -0.991445 -0.130526 0
    outer loop
      vertex 6.21139 12.3882 5
      vertex 6.2625 12 0
      vertex 6.2625 12 5
    endloop
  endfacet
  facet normal -0.382684 0.923879 0
    outer loop
      vertex 5.5125 10.701 0
      vertex 5.15073 10.5511 5
      vertex 5.5125 10.701 5
    endloop
  endfacet
  facet normal -0.382684 0.923879 0
    outer loop
      vertex 5.15073 10.5511 5
      vertex 5.5125 10.701 0
      vertex 5.15073 10.5511 0
    endloop
  endfacet
  facet normal -0.608761 0.793354 0
    outer loop
      vertex 5.82316 10.9393 0
      vertex 5.5125 10.701 5
      vertex 5.82316 10.9393 5
    endloop
  endfacet
  facet normal -0.608761 0.793354 0
    outer loop
      vertex 5.5125 10.701 5
      vertex 5.82316 10.9393 0
      vertex 5.5125 10.701 0
    endloop
  endfacet
  facet normal -0.130526 -0.991445 0
    outer loop
      vertex 4.7625 13.5 0
      vertex 5.15073 13.4489 5
      vertex 4.7625 13.5 5
    endloop
  endfacet
  facet normal -0.130526 -0.991445 -0
    outer loop
      vertex 5.15073 13.4489 5
      vertex 4.7625 13.5 0
      vertex 5.15073 13.4489 0
    endloop
  endfacet
  facet normal -0.92388 0.382683 0
    outer loop
      vertex 6.06154 11.25 0
      vertex 6.21139 11.6118 5
      vertex 6.21139 11.6118 0
    endloop
  endfacet
  facet normal -0.92388 0.382683 0
    outer loop
      vertex 6.21139 11.6118 5
      vertex 6.06154 11.25 0
      vertex 6.06154 11.25 5
    endloop
  endfacet
  facet normal 0.382684 0.923879 -0
    outer loop
      vertex 4.37427 10.5511 0
      vertex 4.0125 10.701 5
      vertex 4.37427 10.5511 5
    endloop
  endfacet
  facet normal 0.382684 0.923879 0
    outer loop
      vertex 4.0125 10.701 5
      vertex 4.37427 10.5511 0
      vertex 4.0125 10.701 0
    endloop
  endfacet
  facet normal 0.130526 0.991445 -0
    outer loop
      vertex 4.7625 10.5 0
      vertex 4.37427 10.5511 5
      vertex 4.7625 10.5 5
    endloop
  endfacet
  facet normal 0.130526 0.991445 0
    outer loop
      vertex 4.37427 10.5511 5
      vertex 4.7625 10.5 0
      vertex 4.37427 10.5511 0
    endloop
  endfacet
  facet normal -0.130526 0.991445 0
    outer loop
      vertex 5.15073 10.5511 0
      vertex 4.7625 10.5 5
      vertex 5.15073 10.5511 5
    endloop
  endfacet
  facet normal -0.130526 0.991445 0
    outer loop
      vertex 4.7625 10.5 5
      vertex 5.15073 10.5511 0
      vertex 4.7625 10.5 0
    endloop
  endfacet
  facet normal 0.793353 0.608761 0
    outer loop
      vertex 3.70184 10.9393 5
      vertex 3.46346 11.25 0
      vertex 3.46346 11.25 5
    endloop
  endfacet
  facet normal 0.793353 0.608761 0
    outer loop
      vertex 3.46346 11.25 0
      vertex 3.70184 10.9393 5
      vertex 3.70184 10.9393 0
    endloop
  endfacet
  facet normal 0.92388 0.382683 0
    outer loop
      vertex 3.46346 11.25 5
      vertex 3.31361 11.6118 0
      vertex 3.31361 11.6118 5
    endloop
  endfacet
  facet normal 0.92388 0.382683 0
    outer loop
      vertex 3.31361 11.6118 0
      vertex 3.46346 11.25 5
      vertex 3.46346 11.25 0
    endloop
  endfacet
  facet normal 0.608761 0.793354 -0
    outer loop
      vertex 4.0125 10.701 0
      vertex 3.70184 10.9393 5
      vertex 4.0125 10.701 5
    endloop
  endfacet
  facet normal 0.608761 0.793354 0
    outer loop
      vertex 3.70184 10.9393 5
      vertex 4.0125 10.701 0
      vertex 3.70184 10.9393 0
    endloop
  endfacet
  facet normal -0.793353 0.608761 0
    outer loop
      vertex 5.82316 10.9393 0
      vertex 6.06154 11.25 5
      vertex 6.06154 11.25 0
    endloop
  endfacet
  facet normal -0.793353 0.608761 0
    outer loop
      vertex 6.06154 11.25 5
      vertex 5.82316 10.9393 0
      vertex 5.82316 10.9393 5
    endloop
  endfacet
endsolid OpenSCAD_Model
